<svg xmlns="http://www.w3.org/2000/svg" version="1.1" xmlns:xlink="http://www.w3.org/1999/xlink" xmlns:svgjs="http://svgjs.dev/svgjs" width="1000" height="1000" viewBox="0 0 1000 1000"><rect width="1000" height="1000" fill="#fce44d"></rect><g transform="matrix(0.7,0,0,0.7,150.00000546874986,106.25)"><svg viewBox="0 0 320 360" data-background-color="#fce44d" preserveAspectRatio="xMidYMid meet" height="1125" width="1000" xmlns="http://www.w3.org/2000/svg" xmlns:xlink="http://www.w3.org/1999/xlink"><g id="tight-bounds" transform="matrix(1,0,0,1,0.0000025000000505315256,0)"><svg viewBox="0 0 320 360" height="360" width="320"><g><svg></svg></g><g><svg viewBox="0 0 320 360" height="360" width="320"><g><path transform="translate(-19.44751,3.1739) scale(3.53591,3.53591)" d="M67.6 10.7c0.2 0 1.8 0.8 2.7 1.1-0.3 0.1-1-0.2-1.8-0.5 0.2 0 0.6 0.1 1 0.3-0.2-0.2-1.7-0.7-1.9-0.9M52.7 7.6c0.3-0.1 3.8 0.4 5.4 0.5 0.1-0.1-0.2-0.1-0.6-0.2 0.5-0.1 1.5 0.2 2.2 0.3-2.1 0.1-4.4-0.5-6.4-0.3-0.7 0-0.2-0.2-0.6-0.3M49.8 7.6c1.8 0 3.2 0 0.6 0.2-0.3-0.1-0.7-0.1-0.6-0.2M78.1 15.9c0.2 0 1 0.9 1.4 1.2-0.1 0.1-0.9-0.7-1.3-1 0.1 0.1 0 0-0.1-0.2M76.1 14.6c-0.8-0.7-1.1-0.7-1.2-1.1 0.7 0.4 1.2 0.8 1.2 1.1M63.2 8.3c0.1-0.1 0.3 0.1 0.8 0.2-0.6-0.1-0.5 0-0.3 0.2-0.7-0.1-0.9-0.2-0.7-0.4 0.4 0.2 0.5 0.1 0.2 0M34.8 9.5c0-0.1 0.4-0.3 0.7-0.4-0.3 0.2-0.2 0.3 0.3 0.1 0 0.1-0.6 0.3-1 0.5 0.2-0.1 0.4-0.4 0-0.2M65.2 7.3c-0.3 0.1-1.4-0.5-2.5-0.7-0.6-0.2 2.4 0.5 2.5 0.7M6.2 56.7c0.6 2.5 0.2 2.4 0 0M6.3 41.7c0.1-0.4 0.2-1.5 0.3-1.4-0.3 2.4-0.8 3.5-0.9 5.3 0.3-1.6-0.1 0.9-0.2 1.5 0.1 0.8 0.1-0.5 0.3-0.3 0.2 0.3-0.4 4.5-0.2 2.2-0.2 2.1 0 4.4 0.4 5-0.5 3.2 2 10.4 2.5 11.9 0.1 0.1 0-0.5 0.2-0.1 0.2 1.3 1.1 2.2 1.4 3.6 0.3 0.4 1.5 2.6 1.7 3.1 0.4 0.8 0.6 0.7 1 1.5 1.2 2.3 3.1 4.5 4.9 6.6 5.8 6.8 14.7 12.4 24.6 14.4 9.9 2.1 20.3 0.6 28.4-3.3 0.5-0.3 0.4-0.4 1-0.6 2.8-0.9 6.2-3.8 8.1-4.9 0.9-1 3.3-2.7 3.6-3.7 1.7-1.4 3.4-3.7 4.3-5.2 0.5-0.8 0.9-0.8 1.1-1.3-0.1 0 1.6-2.1 2.1-3.3-0.2 0-0.5 0.6-0.5 0 3.6-6.9 5.6-16.2 4.5-22.6 0.2 7.9-1.8 16.7-5.6 22.3-1.7 3.6-5.2 7.5-8.4 10.3-0.5 0.5-1 1.1-1.6 1.5-1.9 1.6-4 2.9-6.2 4.1-5.2 2.9-11 5.4-17.8 5.5 11.7-1 22.2-6.9 28-14.1-4.4 4.3-6.3 6-11.2 8.5-0.4 0.7-3.7 2.1-5.9 2.7 1.3-0.6 4-1.6 4.9-2.4-7.3 3.5-15.4 5.5-23 4.4 2.9 0 7 0.1 10.9-0.6 0.6-0.2 0.9-0.4 1.6-0.5 7.6-1.7 14.9-5.4 20.1-10.6-3 2.7-7.5 5.9-10.4 6.9 2.7-1.5 7.6-4.4 9.2-6.6-3.2 3.2-9.2 6.4-13 7.8-0.6 0.1 0.4-0.4-0.6 0-1.2 0.3-0.7 0.3-1 0.5-4.6 1.3-9.9 2.4-14.3 2-0.8-0.1-1.1-0.3-1.8-0.3-0.8-0.1-1.5-0.1-2.4-0.1-3.5-0.4-7.3-1.8-10.1-3-1.5-0.7-3-1.2-4.5-2.1-1.2-0.7-2.2-1.5-3.2-2.3-3.8-2.8-7-5.6-10-9.6-5.4-7.5-8.2-16.9-7.8-26.2 0.4-9.3 4.1-18.4 10-25.1-0.3 0.3 0.4-0.7 1-1.3 0 0.2-0.1 0.5 0.6-0.2 0.6-0.7-0.2-0.2 0.1-0.6 6.2-6.8 17-12.3 28.1-12.5 0.4-0.3 1.1-0.7 1.9-0.5 0 0.1-0.5 0.1-0.5 0.1 1.1-0.1 2.1-0.1 2.6 0.1 0.1-0.1-0.4-0.2 0-0.2 0.7 0.2 0.9 0 1.3 0.2-0.3 0-0.6 0-0.8 0.1 2.5 0 4.1 0.6 6.6 0.8-1.3-0.3-1.6-0.3-2.6-0.6 1.1 0.2 1.6 0.4 2.1 0.3-0.2 0-0.1-0.3 0.1-0.2 2 0.5 2.2 0.7 4.3 1.4 0.2-0.2-0.9-0.3-1.2-0.6 2 0.7 3.8 1.2 5 2-0.4-0.3-1.6-0.7-2.5-1.1-0.1 0.1 0.3 0.2 0.4 0.4-1-0.5-2.4-1-3.8-1.2 1.2 0.3 2 0.7 2.5 0.9-1.1-0.2-2.5-0.9-4.1-1.2 2.6 0.8 7.5 2.6 10.5 4.2-1.1-0.7-2.4-1.2-3.1-1.6 0.6 0.1 1.3 0.5 1.3 0.3 0.7 0.3 1.6 1 2.1 1.1-0.9-0.6-2.7-1.5-3.3-1.8 7.5 3.4 14.2 9.1 18.5 16.4 0.4 0.7 1 2.3 1.5 2.5-0.1-0.5-0.5-0.8-0.9-1.6 0.2 0 0.2-0.3 0-0.6-0.4-0.5 0 0.4-0.4-0.1-1.8-3.3-4-6.2-7.4-9.4 1.9 1.8 0.5 0.5 0.1-0.1 2.6 2.3 5.6 6.2 6.9 8.2-0.2-0.3-0.3-0.5-0.2-0.5 2.4 4.1 3.9 7.8 5.4 13.1 0.1 0.1 0-0.4 0.2-0.1 1 4.2 1.3 7.7 1.2 10.9 0.8-5.4-1-13.8-4.2-20.4-0.4-0.8-0.4-0.2-0.8-1.1 0-0.3-0.3-0.9-0.5-1.3-4-6.6-8.9-11.3-14.7-15 0.4 0.2 1.2 0.8 1.2 0.7-10.8-7.1-23.3-8.1-33.6-5.9-0.7 0.3-1 0.6-1.8 1 1.5-0.5 2.4-0.6 3.8-0.9 0.3-0.3-1.3 0.1-0.6-0.2 0.1 0.1 1.4-0.2 1.7-0.1 0 0.1-0.4 0.2-0.5 0.3 3.3-0.7 6.7-0.8 9.6-0.6-1.7 0.1-4.8-0.2-5.8 0.3 1-0.1 2.4-0.2 3.3-0.1-1.2 0-3.4 0.1-4.4 0.2-0.1-0.1 1.6-0.3 0.5-0.3-0.5 0.1-1.3 0.1-1.6 0.4-8.6 0.8-17 5.3-22.9 10.6-1.2 1-2.6 2.1-3.5 3.2-2.2 2.5-3.6 5-5.2 7.2 1-2.1 3.2-5.3 5.8-8 2.6-2.7 5.4-5 6.9-6.2 0 0.4 2.4-1.5 3.3-2.1-0.6 0.5 0.4-0.2 0.6-0.1 3.2-1.9 5.8-2.6 8.7-3.7-0.7 0.2-1.3 0.4-1.4 0.3 0.7-0.2 1.1-0.4 1-0.5-2.8 0.8-7.2 2.7-10.7 4.8 6.3-4.3 14.3-6.9 22.2-7 7.9-0.2 15.6 1.8 21.7 5 4.1 1.8 8 5.1 11.1 8.3 0.9 0.8 0.2-0.2 1.5 1.2-0.4-0.2-0.7-0.4-0.2 0.2 0.8 0.9-0.2-0.7 1.1 0.9-0.1 0-0.5-0.5-0.5-0.3 3.5 3.1 6.2 8.7 7.8 12.4-0.4-1.5-1.4-3.6-2.2-5.1 2.4 4.4 3.2 7 4.2 10.9 0.4 0.3-0.2-1.4 0.2-0.6 0.1 0.6 0.2 2.5 0.6 2.8-0.3-1.9-0.8-4.2-1.2-4.6 0.3 0.2-0.5-2.3-1-2.9-0.2-1.6-1.6-4.4-2.8-6.5-4.3-8.4-12-15.3-20.6-19.1 0-0.2-0.5-0.4-0.7-0.6-8.5-3.6-18.7-4.6-28.5-2.3-9.9 2.4-19.2 8.1-25.8 16.3 0.3-1 2.8-2.9 2.9-3.7-2.9 3.1-6 7.2-8.1 11.6-2.2 4.4-3.4 8.9-3.9 12.2" fill="#000000" fill-rule="nonzero" stroke="none" stroke-width="1" stroke-linecap="butt" stroke-linejoin="miter" stroke-miterlimit="10" stroke-dasharray="" stroke-dashoffset="0" font-family="none" font-weight="none" font-size="none" text-anchor="none" style="mix-blend-mode: normal" data-fill-palette-color="tertiary"></path></g><g transform="matrix(1,0,0,1,48,95.66410505076549)"><svg viewBox="0 0 224 168.67178989846903" height="168.67178989846903" width="224"><g><svg viewBox="0 0 224 168.67178989846903" height="168.67178989846903" width="224"><g><svg viewBox="0 0 224 168.67178989846903" height="168.67178989846903" width="224"><g transform="matrix(1,0,0,1,0,125.53238619178086)"><svg viewBox="0 0 224 43.139403706688164" height="43.139403706688164" width="224"><g><svg viewBox="0 0 224 43.139403706688164" height="43.139403706688164" width="224"><g><svg viewBox="0 0 224 43.139403706688164" height="43.139403706688164" width="224"><g transform="matrix(1,0,0,1,0,0)"><svg width="224" viewBox="2 -35.35 186.13 35.85" height="43.139403706688164" data-palette-color="#000000"><path d="M18.35 0L2.2 0Q2 0 2-0.25L2-0.25 2.05-34.6Q2.05-34.8 2.25-34.8L2.25-34.8 18.3-34.8Q18.5-34.8 18.5-34.55L18.5-34.55 18.5-28.95Q18.5-28.75 18.3-28.75L18.3-28.75 8.05-28.75 8.05-20.95 18.3-20.95Q18.5-20.95 18.5-20.75L18.5-20.75 18.55-15.1Q18.55-14.9 18.35-14.9L18.35-14.9 8.05-14.9 8.05-6.15 18.35-6.15Q18.55-6.15 18.55-5.9L18.55-5.9 18.55-0.2Q18.55 0 18.35 0L18.35 0ZM34.65 0L28.6 0Q28.4 0 28.35-0.25L28.35-0.25 21.45-34.6Q21.4-34.8 21.65-34.8L21.65-34.8 27.3-34.8Q27.5-34.8 27.55-34.6L27.55-34.6 31.65-11.7 35.65-34.6Q35.7-34.8 35.9-34.8L35.9-34.8 41.5-34.8Q41.75-34.8 41.7-34.6L41.7-34.6 34.9-0.25Q34.85 0 34.65 0L34.65 0ZM61 0L44.85 0Q44.65 0 44.65-0.25L44.65-0.25 44.7-34.6Q44.7-34.8 44.9-34.8L44.9-34.8 60.95-34.8Q61.15-34.8 61.15-34.55L61.15-34.55 61.15-28.95Q61.15-28.75 60.95-28.75L60.95-28.75 50.7-28.75 50.7-20.95 60.95-20.95Q61.15-20.95 61.15-20.75L61.15-20.75 61.2-15.1Q61.2-14.9 61-14.9L61-14.9 50.7-14.9 50.7-6.15 61-6.15Q61.2-6.15 61.2-5.9L61.2-5.9 61.2-0.2Q61.2 0 61 0L61 0ZM71.49 0L65.84 0Q65.64 0 65.64-0.25L65.64-0.25 65.74-34.6Q65.74-34.8 65.94-34.8L65.94-34.8 76.04-34.8Q78.74-34.8 81.02-33.48 83.29-32.15 84.64-29.93 85.99-27.7 85.99-24.9L85.99-24.9Q85.99-23.05 85.44-21.58 84.89-20.1 84.14-19.07 83.39-18.05 82.79-17.55L82.79-17.55Q85.49-14.55 85.49-10.5L85.49-10.5 85.54-0.25Q85.54 0 85.29 0L85.29 0 79.64 0Q79.44 0 79.44-0.15L79.44-0.15 79.44-10.5Q79.44-12.3 78.17-13.63 76.89-14.95 75.04-14.95L75.04-14.95 71.74-14.95 71.69-0.25Q71.69 0 71.49 0L71.49 0ZM71.74-28.8L71.74-20.95 76.04-20.95Q77.59-20.95 78.79-22.1 79.99-23.25 79.99-24.9L79.99-24.9Q79.99-26.5 78.82-27.65 77.64-28.8 76.04-28.8L76.04-28.8 71.74-28.8ZM95.59 0L89.94 0Q89.74 0 89.74-0.25L89.74-0.25 89.84-34.6Q89.84-34.8 90.04-34.8L90.04-34.8 100.14-34.8Q102.84-34.8 105.12-33.48 107.39-32.15 108.74-29.93 110.09-27.7 110.09-24.9L110.09-24.9Q110.09-23.05 109.54-21.58 108.99-20.1 108.24-19.07 107.49-18.05 106.89-17.55L106.89-17.55Q109.59-14.55 109.59-10.5L109.59-10.5 109.64-0.25Q109.64 0 109.39 0L109.39 0 103.74 0Q103.54 0 103.54-0.15L103.54-0.15 103.54-10.5Q103.54-12.3 102.27-13.63 100.99-14.95 99.14-14.95L99.14-14.95 95.84-14.95 95.79-0.25Q95.79 0 95.59 0L95.59 0ZM95.84-28.8L95.84-20.95 100.14-20.95Q101.69-20.95 102.89-22.1 104.09-23.25 104.09-24.9L104.09-24.9Q104.09-26.5 102.92-27.65 101.74-28.8 100.14-28.8L100.14-28.8 95.84-28.8ZM119.74 0L114.09 0Q113.84 0 113.84-0.25L113.84-0.25 113.89-34.6Q113.89-34.8 114.09-34.8L114.09-34.8 119.69-34.8Q119.89-34.8 119.89-34.6L119.89-34.6 119.94-0.25Q119.94 0 119.74 0L119.74 0ZM133.49 0.5L133.49 0.5Q130.78 0.5 128.59-0.85 126.39-2.2 125.06-4.48 123.74-6.75 123.74-9.55L123.74-9.55 123.74-25.4Q123.74-28.1 125.06-30.38 126.39-32.65 128.61-34 130.84-35.35 133.49-35.35L133.49-35.35Q136.24-35.35 138.46-34.02 140.69-32.7 141.99-30.45 143.29-28.2 143.29-25.4L143.29-25.4 143.29-23.1Q143.29-22.9 143.04-22.9L143.04-22.9 137.44-22.9Q137.24-22.9 137.24-23.1L137.24-23.1 137.24-25Q137.24-26.9 136.16-28.15 135.09-29.4 133.49-29.4L133.49-29.4Q132.03-29.4 130.91-28.2 129.78-27 129.78-25.4L129.78-25.4 129.78-9.55Q129.78-7.9 130.89-6.73 131.99-5.55 133.49-5.55L133.49-5.55Q135.09-5.55 136.16-6.7 137.24-7.85 137.24-9.55L137.24-9.55 137.24-12 133.74-12Q133.49-12 133.49-12.25L133.49-12.25 133.49-17.85Q133.49-18.1 133.74-18.1L133.74-18.1 143.09-18.1Q143.29-18.1 143.29-17.85L143.29-17.85 143.29-9.55Q143.29-6.75 141.96-4.48 140.64-2.2 138.44-0.85 136.24 0.5 133.49 0.5ZM152.68 0L147.03 0Q146.83 0 146.83-0.25L146.83-0.25 146.88-34.6Q146.88-34.8 147.13-34.8L147.13-34.8 152.68-34.8Q152.93-34.8 152.93-34.6L152.93-34.6 152.88-21 160.38-21 160.38-34.6Q160.38-34.8 160.58-34.8L160.58-34.8 166.13-34.8Q166.38-34.8 166.38-34.6L166.38-34.6 166.48-0.25Q166.48 0 166.23 0L166.23 0 160.63 0Q160.38 0 160.38-0.25L160.38-0.25 160.38-14.95 152.88-14.95 152.88-0.25Q152.88 0 152.68 0L152.68 0ZM181.23 0L175.58 0Q175.38 0 175.38-0.25L175.38-0.25 175.38-28.75 168.88-28.75Q168.63-28.75 168.63-29L168.63-29 168.68-34.6Q168.68-34.8 168.88-34.8L168.88-34.8 187.88-34.8Q188.13-34.8 188.13-34.6L188.13-34.6 188.13-29Q188.13-28.75 187.93-28.75L187.93-28.75 181.38-28.75 181.43-0.25Q181.43 0 181.23 0L181.23 0Z" opacity="1" transform="matrix(1,0,0,1,0,0)" fill="#000000" class="undefined-text-0" data-fill-palette-color="primary" id="text-0"></path></svg></g></svg></g></svg></g></svg></g><g transform="matrix(1,0,0,1,55.78096441190914,0)"><svg viewBox="0 0 112.43807117618172 119.2373118452861" height="119.2373118452861" width="112.43807117618172"><g><svg xmlns="http://www.w3.org/2000/svg" xmlns:xlink="http://www.w3.org/1999/xlink" version="1.1" x="0" y="0" viewBox="15.291397749546697 12.459999999999999 70.25257742530906 74.5008198270406" style="enable-background:new 0 0 100 100;" xml:space="preserve" height="119.2373118452861" width="112.43807117618172" class="icon-icon-0" data-fill-palette-color="accent" id="icon-0"><g fill="#000000" data-fill-palette-color="accent"><path d="M73.3 49.1c3.4-0.3 6.6-5.1 8-7.7 2.8-5.2 6-13.2 3.1-19-3-6-9.7-6-15.5-6-4.2 0-7.7-2.6-11.9-3.4-3.2-0.6-6.6-0.7-9.8-0.3-2.7 0.3-5.4 1-7.9 2-1.3 0.5-2.6 1.2-4 1.7-2.8 1.2-2.9 0.8-5.3 0.5-5.9-0.6-11.1 5.5-13.3 10.4-1.2 2.6-1.9 5.7-1 8.5 1 3 3.5 4.7 5.5 6.9 2.4 2.8 5.1 8.5 9.3 7.6 1 4.5 1.5 9 1.4 13.6 0 0-0.1 0-0.1 0 0 0-0.1 0-0.1 0-0.1 0-0.1 0-0.2 0-0.1 0-0.2 0-0.3 0 0 0 0 0 0 0-0.9 0-1.8 0.5-2 1.5-0.1 0.3-0.1 0.5 0 0.8-0.1 3-0.2 6-0.2 9 0 0.8 0.6 1.6 1.3 1.8 0 0.3 0.1 0.6 0.2 0.9 0.2 0.5-1.1 2.9-1.3 3.3-0.5 1.2-1 2.3-1.4 3.5-0.9 2.3 2.8 3.2 3.6 1 0.7-1.8 1.5-3.5 2.1-5.3 0.3-0.9 0.6-1.7 0.6-2.5 12.2 2.7 25.9 3.2 37.7-1.2 0 0 0 0 0 0 1.6 2.8 1.8 6.2 3.6 8.9 1.3 2 4.6 0.1 3.2-1.9-1.7-2.6-2-5.7-3.4-8.5 0.8-0.4 1.4-0.9 1.7-1.6 1-2.2-0.6-7-0.8-9.5C76 63.2 75 62 73.8 62.4l0 0C72.5 58.1 72.8 53.5 73.3 49.1zM32.7 73.8c0-1.8 0.1-3.5 0.1-5.3 12.5 4.5 27.3 2.8 39.7-1.6 0 1.8 0.1 3.9 0.6 5.1-0.9 0.3-2.2 1.1-2.7 1.3C58.3 77.5 44.8 76.8 32.7 73.8zM73.9 71.7c0 0 0.1-0.1 0.1-0.1C73.9 71.6 73.9 71.7 73.9 71.7zM35.6 65.5c0.3-5.8-0.3-11.6-1.8-17.2 1-1.7 0.8-4.2 0.7-6-0.2-3-3.7-13 0.2-14.7 2.2-0.9 0.3-4.2-1.9-3.2-4.2 1.8-3.6 8.2-3.1 11.8 0.3 1.9 2.7 9.9 0 10.4-2.4 0.4-4.5-4.8-5.9-6.4-1.4-1.5-3.3-2.6-4.2-4.5-1.3-2.7-0.2-5.6 1.1-8 2.1-3.6 5.2-6.9 9.5-6.6 5.3 0.4 9.6-3.1 14.8-4.2C49 16 53 15.9 56.9 16.8c3.4 0.7 6.2 3.1 9.5 3.6 3.2 0.5 6.3-0.8 9.6 0.1 6.3 1.7 6.3 7.2 4.7 12.4-0.8 2.6-3 10-5.9 11.1-4.3 1.7-2.8-7.7-2.8-10.3 0-3.8-0.3-9.7-5-10.5-2.4-0.4-3.4 3.2-1 3.6 4.7 0.8 0.7 16.4 3.7 20.5 0 0.1 0 0.1 0 0.2-0.6 5.4-1.1 11 0.5 16.2C59.4 67.3 46.5 68.9 35.6 65.5z" fill="#000000" data-fill-palette-color="accent"></path><path d="M51 48.5c3-0.2 3.5-4 5-8.5s-6.2-3.8-9.5-2.5-1.2 5.2-1.2 5.2S48 48.8 51 48.5z" fill="#000000" data-fill-palette-color="accent"></path><circle cx="62.1" cy="32.4" r="1.8" fill="#000000" data-fill-palette-color="accent"></circle><circle cx="38.8" cy="32.4" r="1.8" fill="#000000" data-fill-palette-color="accent"></circle><path d="M60.5 46.8c-4 4.7-13.8 5.9-18.4 1.2-1.1-1.1-2.9 0.6-1.8 1.8 5.5 5.6 17 4.6 22-1.2C63.3 47.3 61.5 45.6 60.5 46.8z" fill="#000000" data-fill-palette-color="accent"></path></g></svg></g></svg></g><g></g></svg></g></svg></g></svg></g></svg></g><defs></defs></svg><rect width="320" height="360" fill="none" stroke="none" visibility="hidden"></rect></g></svg></g></svg>