<svg width="1000" height="1000" viewBox="0 0 1000 1000" fill="none" xmlns="http://www.w3.org/2000/svg">
<rect width="1000" height="1000" fill="#FBE320"/>
<g clip-path="url(#clip0_53_35859)">
<path d="M164.627 804.813H93.9193C93.3355 804.813 93.0436 804.448 93.0436 803.719L93.2625 653.463C93.2625 652.88 93.5544 652.588 94.1382 652.588H164.408C164.992 652.588 165.284 652.953 165.284 653.682V678.178C165.284 678.761 164.992 679.053 164.408 679.053H119.532V713.172H164.408C164.992 713.172 165.284 713.464 165.284 714.047L165.503 738.761C165.503 739.345 165.211 739.636 164.627 739.636H119.532V777.911H164.627C165.211 777.911 165.503 778.276 165.503 779.005V803.938C165.503 804.521 165.211 804.813 164.627 804.813ZM235.992 804.813H209.503C208.92 804.813 208.555 804.448 208.409 803.719L178.199 653.463C178.053 652.88 178.345 652.588 179.075 652.588H203.812C204.396 652.588 204.76 652.88 204.906 653.463L222.857 753.634L240.37 653.463C240.516 652.88 240.881 652.588 241.464 652.588H265.982C266.712 652.588 267.004 652.88 266.858 653.463L237.086 803.719C236.94 804.448 236.575 804.813 235.992 804.813ZM351.357 804.813H280.649C280.065 804.813 279.773 804.448 279.773 803.719L279.992 653.463C279.992 652.88 280.284 652.588 280.868 652.588H351.138C351.722 652.588 352.014 652.953 352.014 653.682V678.178C352.014 678.761 351.722 679.053 351.138 679.053H306.261V713.172H351.138C351.722 713.172 352.014 713.464 352.014 714.047L352.232 738.761C352.232 739.345 351.941 739.636 351.357 739.636H306.261V777.911H351.357C351.941 777.911 352.232 778.276 352.232 779.005V803.938C352.232 804.521 351.941 804.813 351.357 804.813ZM397.284 804.813H372.547C371.963 804.813 371.672 804.448 371.672 803.719L372.109 653.463C372.109 652.88 372.401 652.588 372.985 652.588H417.205C425.086 652.588 432.353 654.513 439.008 658.362C445.634 662.241 450.917 667.417 454.857 673.891C458.798 680.394 460.768 687.728 460.768 695.894C460.768 701.289 459.965 706.129 458.36 710.416C456.754 714.732 454.857 718.392 452.668 721.396C450.479 724.37 448.509 726.586 446.758 728.044C454.638 736.793 458.579 747.073 458.579 758.883L458.798 803.719C458.798 804.448 458.433 804.813 457.703 804.813H432.966C432.383 804.813 432.091 804.594 432.091 804.157V758.883C432.091 753.634 430.237 749.07 426.53 745.192C422.794 741.342 418.226 739.418 412.827 739.418H398.379L398.16 803.719C398.16 804.448 397.868 804.813 397.284 804.813ZM398.379 678.834V713.172H417.205C421.729 713.172 425.742 711.495 429.245 708.142C432.747 704.788 434.499 700.705 434.499 695.894C434.499 691.228 432.791 687.218 429.376 683.864C425.932 680.511 421.875 678.834 417.205 678.834H398.379ZM502.798 804.813H478.062C477.478 804.813 477.186 804.448 477.186 803.719L477.624 653.463C477.624 652.88 477.916 652.588 478.499 652.588H522.719C530.6 652.588 537.868 654.513 544.523 658.362C551.148 662.241 556.431 667.417 560.372 673.891C564.312 680.394 566.282 687.728 566.282 695.894C566.282 701.289 565.479 706.129 563.874 710.416C562.269 714.732 560.372 718.392 558.182 721.396C555.993 724.37 554.023 726.586 552.272 728.044C560.153 736.793 564.093 747.073 564.093 758.883L564.312 803.719C564.312 804.448 563.947 804.813 563.217 804.813H538.481C537.897 804.813 537.605 804.594 537.605 804.157V758.883C537.605 753.634 535.752 749.07 532.045 745.192C528.309 741.342 523.741 739.418 518.341 739.418H503.893L503.674 803.719C503.674 804.448 503.382 804.813 502.798 804.813ZM503.893 678.834V713.172H522.719C527.243 713.172 531.257 711.495 534.759 708.142C538.262 704.788 540.013 700.705 540.013 695.894C540.013 691.228 538.306 687.218 534.891 683.864C531.446 680.511 527.389 678.834 522.719 678.834H503.893ZM608.532 804.813H583.795C583.065 804.813 582.7 804.448 582.7 803.719L582.919 653.463C582.919 652.88 583.211 652.588 583.795 652.588H608.313C608.897 652.588 609.188 652.88 609.188 653.463L609.407 803.719C609.407 804.448 609.115 804.813 608.532 804.813ZM668.732 807C660.822 807 653.671 805.031 647.279 801.095C640.857 797.158 635.706 791.865 631.824 785.216C627.971 778.596 626.044 771.204 626.044 763.039V693.707C626.044 685.833 627.971 678.572 631.824 671.923C635.706 665.303 640.886 660.025 647.366 656.088C653.875 652.151 660.997 650.183 668.732 650.183C676.758 650.183 684.012 652.122 690.491 656C697 659.85 702.152 665.055 705.946 671.616C709.741 678.178 711.638 685.541 711.638 693.707V703.767C711.638 704.351 711.273 704.642 710.543 704.642H686.026C685.442 704.642 685.15 704.351 685.15 703.767V695.456C685.15 689.915 683.574 685.323 680.422 681.677C677.298 678.032 673.402 676.209 668.732 676.209C664.47 676.209 660.705 677.959 657.436 681.459C654.138 684.958 652.489 689.041 652.489 693.707V763.039C652.489 767.85 654.109 771.962 657.348 775.374C660.559 778.815 664.354 780.536 668.732 780.536C673.402 780.536 677.298 778.859 680.422 775.505C683.574 772.152 685.15 767.996 685.15 763.039V752.322H669.826C669.097 752.322 668.732 751.957 668.732 751.228V726.732C668.732 726.003 669.097 725.639 669.826 725.639H710.762C711.346 725.639 711.638 726.003 711.638 726.732V763.039C711.638 771.204 709.697 778.596 705.815 785.216C701.962 791.865 696.825 797.158 690.404 801.095C683.982 805.031 676.758 807 668.732 807ZM752.749 804.813H728.012C727.429 804.813 727.137 804.448 727.137 803.719L727.356 653.463C727.356 652.88 727.721 652.588 728.45 652.588H752.749C753.479 652.588 753.844 652.88 753.844 653.463L753.625 712.953H786.461V653.463C786.461 652.88 786.753 652.588 787.337 652.588H811.636C812.366 652.588 812.73 652.88 812.73 653.463L813.168 803.719C813.168 804.448 812.803 804.813 812.074 804.813H787.556C786.826 804.813 786.461 804.448 786.461 803.719V739.418H753.625V803.719C753.625 804.448 753.333 804.813 752.749 804.813ZM877.747 804.813H853.01C852.426 804.813 852.134 804.448 852.134 803.719V679.053H823.676C822.946 679.053 822.581 678.688 822.581 677.959L822.8 653.463C822.8 652.88 823.092 652.588 823.676 652.588H906.862C907.591 652.588 907.956 652.88 907.956 653.463V677.959C907.956 678.688 907.664 679.053 907.08 679.053H878.403L878.622 803.719C878.622 804.448 878.33 804.813 877.747 804.813Z" fill="black"/>
</g>
<g clip-path="url(#clip1_53_35859)">
<path d="M633.713 407.832C653.512 406.087 672.146 378.16 680.299 363.034C696.604 332.78 715.238 286.237 698.351 252.492C680.881 217.585 641.866 217.585 608.091 217.585C583.634 217.585 563.253 202.458 538.795 197.804C520.161 194.313 500.362 193.731 481.728 196.058C466.005 197.804 450.283 201.876 435.725 207.694C428.155 210.603 420.585 214.676 412.432 217.585C396.127 224.566 395.545 222.239 381.569 220.494C347.212 217.003 316.932 252.492 304.121 281C297.133 296.127 293.057 314.163 298.298 330.453C304.121 347.907 318.679 357.798 330.325 370.597C344.301 386.887 360.023 420.05 384.481 414.814C390.304 440.994 393.216 467.175 392.633 493.938H392.051H391.469C390.886 493.938 390.886 493.938 390.304 493.938C389.722 493.938 389.139 493.938 388.557 493.938C383.316 493.938 378.075 496.847 376.911 502.665C376.328 504.41 376.981 511.617 376.911 515.384C376.587 532.833 375.746 542.227 375.746 559.681C375.746 564.335 379.047 569.367 383.205 571.028L385.7 571.859C383.205 581.024 378.075 592.261 376.911 594.589C373.999 601.57 371.088 607.97 368.758 614.951C363.517 628.333 385.063 633.569 389.722 620.769C393.798 610.297 398.456 600.407 401.95 589.934C403.697 584.698 405.444 580.044 405.444 575.389C476.487 591.098 556.265 594.007 624.978 568.408C634.296 584.698 635.46 604.479 645.942 620.188C653.512 631.824 672.729 620.769 664.576 609.133C654.677 594.007 652.93 575.971 644.777 559.681C649.436 557.354 652.93 554.445 654.677 550.372C660.5 537.573 651.183 509.646 650.018 495.101C649.436 489.865 643.613 482.884 636.625 485.211C629.055 460.194 630.802 433.431 633.713 407.832ZM397.292 551.536C397.292 541.063 397.874 531.173 397.874 520.7C470.664 546.881 556.847 536.991 629.055 511.392C629.055 521.864 629.637 534.082 632.549 541.063C632.549 541.063 629.055 543.634 616.826 548.627C546.365 573.062 467.752 568.99 397.292 551.536ZM414.179 503.247C415.926 469.502 412.432 435.758 403.697 403.178C409.521 393.287 408.356 378.742 407.774 368.27C406.609 350.816 386.228 292.636 408.938 282.746C421.749 277.51 410.685 258.31 397.874 264.128C373.417 274.601 376.911 311.836 379.822 332.78C381.569 343.834 395.545 390.378 379.822 393.287C365.847 395.614 353.618 365.361 345.465 356.052C337.313 347.325 326.249 340.925 321.008 329.871C313.438 314.163 319.843 297.291 327.414 283.328C339.642 262.383 357.694 243.184 382.734 244.929C413.597 247.256 438.636 226.893 468.917 220.494C492.21 215.257 515.503 214.676 538.213 219.912C558.012 223.984 574.317 237.948 593.533 240.856C612.167 243.765 630.219 236.202 649.436 241.438C686.122 251.329 686.122 283.328 676.805 313.581C672.146 328.708 659.335 371.761 642.448 378.16C617.408 388.051 626.143 333.362 626.143 318.235C626.143 296.127 624.396 261.801 597.027 257.147C583.052 254.82 577.228 275.764 591.204 278.091C618.573 282.746 595.28 373.506 612.75 397.36C612.75 397.941 612.75 397.941 612.75 398.523C609.256 429.94 606.344 462.521 615.661 492.774C552.771 513.719 477.652 523.028 414.179 503.247Z" fill="black"/>
<path d="M503.264 384.068C513.201 383.403 514.857 370.764 519.825 355.796C524.793 340.828 499.29 343.156 488.36 347.48C477.43 351.804 484.385 364.776 484.385 364.776C484.385 364.776 493.328 385.066 503.264 384.068Z" fill="black"/>
<path d="M568.528 320.338C574.317 320.338 579.01 315.65 579.01 309.866C579.01 304.082 574.317 299.394 568.528 299.394C562.739 299.394 558.047 304.082 558.047 309.866C558.047 315.65 562.739 320.338 568.528 320.338Z" fill="black"/>
<path d="M432.848 320.338C438.637 320.338 443.33 315.65 443.33 309.866C443.33 304.082 438.637 299.394 432.848 299.394C427.059 299.394 422.366 304.082 422.366 309.866C422.366 315.65 427.059 320.338 432.848 320.338Z" fill="black"/>
<path d="M559.211 393.645C535.918 420.989 478.851 427.971 452.064 400.627C445.659 394.227 435.177 404.117 441.583 411.099C473.61 443.679 540.577 437.861 569.693 404.117C575.516 396.554 565.034 386.663 559.211 393.645Z" fill="black"/>
</g>
<defs>
<clipPath id="clip0_53_35859">
<rect width="815" height="156.817" fill="white" transform="translate(93 650.183)"/>
</clipPath>
<clipPath id="clip1_53_35859">
<rect width="409.163" height="435.385" fill="white" transform="translate(295.918 193)"/>
</clipPath>
</defs>
</svg>
