<svg viewBox="0 0 16 16" fill="currentColor" xmlns="http://www.w3.org/2000/svg"><g class="back"><path class="primary" d="M3.672 8.766h9.97a.487.487 0 0 0 .359-.14.487.487 0 0 0 .14-.36.487.487 0 0 0-.14-.36.487.487 0 0 0-.36-.14H3.672l3.875-3.64a.494.494 0 0 0 .157-.36.46.46 0 0 0-.164-.352.533.533 0 0 0-.367-.148.58.58 0 0 0-.375.14l-4.782 4.5a.494.494 0 0 0-.156.36c0 .135.052.255.156.36l4.782 4.5a.58.58 0 0 0 .375.14c.135 0 .257-.05.367-.149a.46.46 0 0 0 .164-.351.494.494 0 0 0-.157-.36l-3.875-3.64Z"/></g></svg>