<svg viewBox="0 0 16 16" fill="currentColor" xmlns="http://www.w3.org/2000/svg"><g class="bottom"><path class="primary" d="M8.5 12.594V2.625a.487.487 0 0 0-.14-.36.487.487 0 0 0-.36-.14.487.487 0 0 0-.36.14.487.487 0 0 0-.14.36v9.969L3.86 8.719a.494.494 0 0 0-.36-.156.46.46 0 0 0-.352.163.533.533 0 0 0-.148.367c0 .136.047.26.14.376l4.5 4.781a.494.494 0 0 0 .36.156.494.494 0 0 0 .36-.156l4.5-4.781a.58.58 0 0 0 .14-.375.533.533 0 0 0-.149-.367.46.46 0 0 0-.351-.165.494.494 0 0 0-.36.157L8.5 12.594Z"/></g></svg>