<svg xmlns="http://www.w3.org/2000/svg" fill="none" viewBox="0 0 16 16"><g clip-path="url(#a)"><path fill="#666" d="M6.167 1.333a.5.5 0 0 0-1 0v.834H2c-.644 0-1.167.522-1.167 1.166V14c0 .644.523 1.167 1.167 1.167h12c.645 0 1.167-.523 1.167-1.167V3.333c0-.644-.522-1.166-1.167-1.166h-3.166v-.834a.5.5 0 0 0-1 0v.834H6.167v-.834Zm-1 1.834V4a.5.5 0 0 0 1 0v-.833h3.667V4a.5.5 0 0 0 1 0v-.833H14c.092 0 .167.074.167.166v2.834H1.833V3.333c0-.092.075-.166.167-.166h3.167Zm-3.333 4h3.333v3H1.834v-3Zm0 4h3.333v3H2A.167.167 0 0 1 1.833 14v-2.833Zm9.512 3h-.512v-3h3.333V14a.167.167 0 0 1-.167.167h-2.654Zm2.82-4h-3.332v-3h3.333v3Zm-8 0v-3h3.668v3H6.167Zm0 1h3.668v3H6.167v-3Z"/></g><defs><clipPath id="a"><path fill="#fff" d="M0 0h16v16H0z"/></clipPath></defs></svg>