<svg viewBox="0 0 16 16" fill="currentColor" xmlns="http://www.w3.org/2000/svg"><g class="circleMinus"><path class="Union" d="M5.5 7.5h5a.49.49 0 0 1 .36.14A.49.49 0 0 1 11 8a.487.487 0 0 1-.14.36.487.487 0 0 1-.36.14h-5a.487.487 0 0 1-.36-.14A.487.487 0 0 1 5 8a.49.49 0 0 1 .14-.36.487.487 0 0 1 .36-.14ZM8 14c1.698-.042 3.112-.628 4.242-1.758S13.958 9.698 14 8c-.042-1.698-.628-3.112-1.758-4.242S9.698 2.042 8 2c-1.698.042-3.112.628-4.242 1.758S2.042 6.302 2 8c.042 1.698.628 3.112 1.758 4.242S6.302 13.958 8 14Zm0 1c-1.98-.052-3.628-.737-4.946-2.055C1.738 11.628 1.053 9.98 1 8c.052-1.98.737-3.628 2.054-4.946C4.373 1.738 6.021 1.053 8 1c1.98.052 3.628.737 4.945 2.054C14.263 4.373 14.948 6.021 15 8c-.052 1.98-.737 3.628-2.055 4.945C11.628 14.263 9.98 14.948 8 15Z"/></g></svg>