<svg viewBox="0 0 16 16" fill="currentColor" xmlns="http://www.w3.org/2000/svg"><g class="circleClose"><path class="Union" d="M7.297 8 5.875 6.593a.522.522 0 0 1-.14-.359.48.48 0 0 1 .148-.351.48.48 0 0 1 .351-.149c.136 0 .256.047.36.14l1.407 1.423 1.406-1.422a.487.487 0 0 1 .492-.125.48.48 0 0 1 .352.351.485.485 0 0 1-.125.492L8.704 8l1.421 1.406c.136.146.178.31.126.492a.482.482 0 0 1-.352.351.485.485 0 0 1-.492-.125l-1.406-1.42-1.407 1.421a.522.522 0 0 1-.36.141.48.48 0 0 1-.351-.149.48.48 0 0 1-.149-.351c0-.135.047-.255.141-.36L7.297 8ZM8 14c1.698-.042 3.112-.628 4.242-1.758S13.958 9.698 14 8c-.042-1.698-.628-3.112-1.758-4.242S9.698 2.042 8 2c-1.698.042-3.112.628-4.242 1.758S2.042 6.302 2 8c.042 1.698.628 3.112 1.758 4.242S6.302 13.958 8 14Zm0 1c-1.98-.052-3.628-.737-4.946-2.055C1.738 11.628 1.053 9.98 1 8c.052-1.98.737-3.628 2.054-4.946C4.373 1.738 6.021 1.053 8 1c1.98.052 3.628.737 4.945 2.054C14.263 4.373 14.948 6.021 15 8c-.052 1.98-.737 3.628-2.055 4.945C11.628 14.263 9.98 14.948 8 15Z"/></g></svg>