<svg xmlns="http://www.w3.org/2000/svg" fill="none" viewBox="0 0 16 16"><path fill="#666" d="M6.167 1.971a.5.5 0 0 1 .5-.5h2.666a.5.5 0 0 1 .5.5v2.167h4.5a.5.5 0 0 1 .5.5v2.667a.5.5 0 0 1-.5.5h-.5v5.528a.5.5 0 0 1-.5.5H2.667a.5.5 0 0 1-.5-.5V7.805h-.5a.5.5 0 0 1-.5-.5V4.638a.5.5 0 0 1 .5-.5h4.5V1.971Zm1 .5v2.167a.5.5 0 0 1-.5.5h-4.5v1.667h11.666V5.138h-4.5a.5.5 0 0 1-.5-.5V2.471H7.166Zm-4 5.362v5h1.666v-1.528a.5.5 0 1 1 1 0v1.528H7.5V11.3a.5.5 0 0 1 1 0v1.534h1.667v-1.528a.5.5 0 1 1 1 0v1.528H12a.19.19 0 0 1 .008 0h.825v-5H3.167Z" data-follow-fill="#666"/></svg>