<svg viewBox="0 0 16 16" fill="currentColor" xmlns="http://www.w3.org/2000/svg"><g class="clear1"><path clip-rule="evenodd" class="Union" d="M10.338 1.967a.5.5 0 0 1 .7.099l4.288 5.69a.5.5 0 0 1-.098.7l-4.642 3.498a.426.426 0 0 1-.015.011l-1.105.769-.154.123h5.543a.5.5 0 0 1 0 1H7.918l-.031.001H4.366a.5.5 0 0 1-.4-.2L.957 9.665a.5.5 0 0 1 .098-.7l3.351-2.526.006-.004 5.927-4.467Zm-2.625 10.89H4.615l-.716-.95-1.844-2.446 2.572-1.938 3.834 4.735-.748.6ZM5.426 6.921l3.836 4.736.73-.507 4.235-3.192-3.686-4.891L5.426 6.92Z" fill-rule="evenodd"/></g></svg>