<svg xmlns="http://www.w3.org/2000/svg" fill="none" viewBox="0 0 16 16"><g clip-path="url(#a)"><path fill="#666" d="M6.43.833a.5.5 0 0 0-.439.26l-.954 1.74H1.333a.5.5 0 1 0 0 1H2.5v10.834a.5.5 0 0 0 .5.5h10a.5.5 0 0 0 .5-.5V3.833h1.167a.5.5 0 1 0 0-1H10.966l-.933-1.736a.5.5 0 0 0-.44-.264H6.43Zm3.4 2-.536-1H6.726l-.548 1H9.83Zm-4.497 1H3.5v10.334h9V3.833H5.334Zm1.334 2.334a.5.5 0 0 1 .5.5V11a.5.5 0 1 1-1 0V6.667a.5.5 0 0 1 .5-.5Zm2.667 0a.5.5 0 0 1 .5.5V11a.5.5 0 1 1-1 0V6.667a.5.5 0 0 1 .5-.5Z" clip-rule="evenodd" fill-rule="evenodd"/></g><defs><clipPath id="a"><path fill="#fff" d="M0 0h16v16H0z"/></clipPath></defs></svg>