<svg xmlns="http://www.w3.org/2000/svg" fill="none" viewBox="0 0 16 16"><path fill="#666" d="M2.5 4h-1a.487.487 0 0 1-.36-.14A.487.487 0 0 1 1 3.5c0-.146.047-.266.14-.36A.487.487 0 0 1 1.5 3h4V1.5c0-.146.047-.266.14-.36A.487.487 0 0 1 6 1h4c.146 0 .266.047.36.14.093.094.14.214.14.36V3h4c.146 0 .266.047.36.14.093.094.14.214.14.36a.487.487 0 0 1-.14.36.487.487 0 0 1-.36.14h-1v10.5a.487.487 0 0 1-.14.36.487.487 0 0 1-.36.14H3a.487.487 0 0 1-.36-.14.487.487 0 0 1-.14-.36V4Zm7-1V2h-3v1h3Zm-6 11h9V4h-9v10Zm3-2a.487.487 0 0 1-.36-.14.487.487 0 0 1-.14-.36v-5c0-.146.047-.266.14-.36A.487.487 0 0 1 6.5 6c.146 0 .266.047.36.14.093.094.14.214.14.36v5a.487.487 0 0 1-.14.36.487.487 0 0 1-.36.14Zm3 0a.487.487 0 0 1-.36-.14.487.487 0 0 1-.14-.36v-5c0-.146.047-.266.14-.36A.487.487 0 0 1 9.5 6c.146 0 .266.047.36.14.093.094.14.214.14.36v5a.487.487 0 0 1-.14.36.487.487 0 0 1-.36.14Z" data-follow-fill="#666"/></svg>