<svg viewBox="0 0 16 16" fill="currentColor" xmlns="http://www.w3.org/2000/svg"><g class="delete"><path class="Union" d="M2.5 4h-1a.487.487 0 0 1-.36-.14A.487.487 0 0 1 1 3.5a.49.49 0 0 1 .14-.36A.487.487 0 0 1 1.5 3h4V1.5a.49.49 0 0 1 .14-.36A.487.487 0 0 1 6 1h4a.49.49 0 0 1 .36.14.49.49 0 0 1 .14.36V3h4a.49.49 0 0 1 .36.14.49.49 0 0 1 .14.36.487.487 0 0 1-.14.36.487.487 0 0 1-.36.14h-1v10.5a.487.487 0 0 1-.14.36.487.487 0 0 1-.36.14H3a.487.487 0 0 1-.36-.14.487.487 0 0 1-.14-.36V4Zm7-1V2h-3v1h3Zm-6 11h9V4h-9v10Zm3-2a.487.487 0 0 1-.36-.14.487.487 0 0 1-.14-.36v-5a.49.49 0 0 1 .14-.36A.487.487 0 0 1 6.5 6a.49.49 0 0 1 .36.14.49.49 0 0 1 .14.36v5a.487.487 0 0 1-.14.36.487.487 0 0 1-.36.14Zm3 0a.487.487 0 0 1-.36-.14.487.487 0 0 1-.14-.36v-5a.49.49 0 0 1 .14-.36A.487.487 0 0 1 9.5 6a.49.49 0 0 1 .36.14.49.49 0 0 1 .14.36v5a.487.487 0 0 1-.14.36.487.487 0 0 1-.36.14Z"/></g></svg>