<svg viewBox="0 0 16 16" fill="currentColor" xmlns="http://www.w3.org/2000/svg"><g class="divider"><path class="Vector (Stroke)" d="M1.167 3.333a.5.5 0 0 1 .5-.5h2a.5.5 0 1 1 0 1h-2a.5.5 0 0 1-.5-.5Zm5.333 0a.5.5 0 0 1 .5-.5h2a.5.5 0 0 1 0 1H7a.5.5 0 0 1-.5-.5Zm5.333 0a.5.5 0 0 1 .5-.5h2a.5.5 0 0 1 0 1h-2a.5.5 0 0 1-.5-.5ZM1.167 8a.5.5 0 0 1 .5-.5h12.666a.5.5 0 0 1 0 1H1.667a.5.5 0 0 1-.5-.5Zm0 4.667a.5.5 0 0 1 .5-.5h2a.5.5 0 0 1 0 1h-2a.5.5 0 0 1-.5-.5Zm5.333 0a.5.5 0 0 1 .5-.5h2a.5.5 0 0 1 0 1H7a.5.5 0 0 1-.5-.5Zm5.333 0a.5.5 0 0 1 .5-.5h2a.5.5 0 0 1 0 1h-2a.5.5 0 0 1-.5-.5Z"/></g></svg>