<svg viewBox="0 0 16 16" fill="currentColor" xmlns="http://www.w3.org/2000/svg"><g class="doubleArrowLeft"><path class="primary" d="M8.266 2.328a.478.478 0 0 1 .328-.125.45.45 0 0 1 .328.14.45.45 0 0 1 0 .656L4.047 8l4.875 5c.093.094.14.206.14.336 0 .13-.047.24-.14.329a.465.465 0 0 1-.328.133.475.475 0 0 1-.328-.126L3.094 8.345a.513.513 0 0 1-.14-.352.46.46 0 0 1 .14-.336l5.172-5.328Zm4 0a.478.478 0 0 1 .328-.125.45.45 0 0 1 .328.14.45.45 0 0 1 .14.329.45.45 0 0 1-.14.327L8.047 8l4.875 5c.093.094.14.206.14.336 0 .13-.047.24-.14.329a.465.465 0 0 1-.328.133.475.475 0 0 1-.328-.126L7.094 8.345a.513.513 0 0 1-.14-.352.46.46 0 0 1 .14-.336l5.172-5.328Z"/></g></svg>