<svg viewBox="0 0 16 16" fill="currentColor" xmlns="http://www.w3.org/2000/svg"><g class="doubleArrowRight"><path class="primary" d="M7.078 2.328a.478.478 0 0 1 .328-.125.48.48 0 0 1 .328.125l5.172 5.328c.094.094.14.208.14.344 0 .136-.046.25-.14.344l-5.172 5.328a.478.478 0 0 1-.328.125.45.45 0 0 1-.328-.14.45.45 0 0 1 0-.656l4.875-5-4.875-5a.45.45 0 0 1-.14-.329c0-.125.046-.24.14-.344Zm-4 0a.478.478 0 0 1 .328-.125.48.48 0 0 1 .328.125l5.172 5.328c.094.094.14.208.14.344 0 .136-.046.25-.14.344l-5.172 5.328a.478.478 0 0 1-.328.125.45.45 0 0 1-.328-.14.45.45 0 0 1 0-.656l4.875-5-4.875-5a.45.45 0 0 1-.14-.329c0-.125.046-.24.14-.344Z"/></g></svg>