<svg viewBox="0 0 16 16" fill="currentColor" xmlns="http://www.w3.org/2000/svg"><g class="drag"><path class="Union" d="M12.334.795a.5.5 0 1 0-.668.743l.698.629H7.67a.5.5 0 0 0 0 1h4.694l-.698.628a.5.5 0 1 0 .668.743l1.634-1.47a.5.5 0 0 0 0-.803L12.334.795ZM4.328 2.15a.572.572 0 0 0-.168.405v7.26a.5.5 0 0 1-1 0v-.036c-.205.278-.324.67-.324 1.222 0 .515.34 1.322.909 2.027.577.714 1.239 1.14 1.755 1.14h3.84c1.146 0 1.86-1.011 1.86-1.814V8.2a.584.584 0 0 0-.583-.584.578.578 0 0 0-.58.576v.142a.5.5 0 1 1-1 0V7.27a.435.435 0 0 0-.861-.083v.957c0 .03-.003.06-.009.09a.5.5 0 0 1-1-.014v-.95c0-.05.003-.101.009-.151v-.515a.435.435 0 0 0-.87 0V8a.5.5 0 0 1-1 0V2.554a.572.572 0 0 0-.977-.405Zm5.616 4.616A1.581 1.581 0 0 1 12.2 8.2v4.153c0 1.258-1.07 2.814-2.86 2.814H5.5c-.983 0-1.903-.731-2.533-1.512-.638-.79-1.13-1.816-1.13-2.655 0-1.012.327-1.84 1.075-2.352a.498.498 0 0 1 .248-.086V2.554a1.572 1.572 0 1 1 3.145 0v2.681a1.434 1.434 0 0 1 1.716.722 1.434 1.434 0 0 1 1.923.808Z"/></g></svg>