<svg xmlns="http://www.w3.org/2000/svg" fill="none" viewBox="0 0 16 16"><path fill="#666" d="M12.334.795a.5.5 0 1 0-.668.743l.698.629H7.67a.5.5 0 0 0 0 1h4.694l-.698.628a.5.5 0 1 0 .668.743l1.634-1.47a.5.5 0 0 0 0-.803L12.334.795ZM4.328 2.15a.572.572 0 0 1 .977.405V8a.5.5 0 1 0 1 0V6.603a.435.435 0 1 1 .87 0v.515c-.006.05-.008.1-.008.151v.95a.5.5 0 0 0 1 .014.502.502 0 0 0 .008-.09v-.957a.435.435 0 0 1 .86.083v1.065a.5.5 0 1 0 1 0v-.09l.001-.016v-.036a.578.578 0 0 1 .58-.576.584.584 0 0 1 .583.584v4.153c0 .803-.714 1.814-1.86 1.814H5.5c-.516 0-1.178-.426-1.755-1.14-.569-.705-.909-1.512-.909-2.027 0-.552.119-.944.324-1.222v.037a.5.5 0 1 0 1 0V2.554c0-.152.06-.298.168-.405Zm5.616 4.616A1.581 1.581 0 0 1 12.2 8.2v4.153c0 1.258-1.07 2.814-2.86 2.814H5.5c-.983 0-1.903-.731-2.533-1.512-.638-.79-1.13-1.816-1.13-2.655 0-1.012.327-1.84 1.075-2.352a.498.498 0 0 1 .248-.086V2.554a1.572 1.572 0 1 1 3.145 0v2.681a1.434 1.434 0 0 1 1.716.722 1.434 1.434 0 0 1 1.923.808Z" clip-rule="evenodd" fill-rule="evenodd" data-follow-fill="#666"/></svg>