<svg xmlns="http://www.w3.org/2000/svg" fill="none" viewBox="0 0 16 16"><path fill="#666" d="M14.67 2.5a.5.5 0 0 1 .497.5v5a.5.5 0 1 1-1 0V3.99L8.359 8.296a.6.6 0 0 1-.714 0L1.834 3.992V12.5H8a.5.5 0 0 1 0 1H1.333a.5.5 0 0 1-.5-.5V3a.5.5 0 0 1 .5-.5h13.325a.55.55 0 0 1 .012 0Zm-11.82 1 5.152 3.815L13.149 3.5H2.85Zm10.504 5.48a.5.5 0 0 0-.683-.023l-2.667 2.333a.5.5 0 0 0-.17.377V13a.5.5 0 0 0 .5.5h1.333a.5.5 0 0 0 .33-.124l2.666-2.333a.5.5 0 0 0 .024-.73L13.354 8.98Zm-2.52 3.52v-.606l2.143-1.876.625.624-2.123 1.858h-.645Z" data-follow-fill="#666"/></svg>