<svg viewBox="0 0 16 16" fill="currentColor" xmlns="http://www.w3.org/2000/svg"><g class="html"><path class="Union" d="M1.5 3A1.5 1.5 0 0 1 3 1.5h10A1.5 1.5 0 0 1 14.5 3v10a1.5 1.5 0 0 1-1.5 1.5H3A1.5 1.5 0 0 1 1.5 13V3Zm1 2.51V13a.5.5 0 0 0 .5.5h10a.5.5 0 0 0 .5-.5V5.51h-11Zm11-1V3a.5.5 0 0 0-.5-.5H3a.5.5 0 0 0-.5.5v1.51h11ZM5.018 7.368c0-.237.215-.43.48-.43h5.005c.264 0 .479.193.479.43 0 .238-.215.43-.48.43H8.48v4.675c0 .237-.214.43-.479.43s-.48-.193-.48-.43V7.797H5.498c-.264 0-.479-.192-.479-.43Z"/></g></svg>