<svg xmlns="http://www.w3.org/2000/svg" fill="none" viewBox="0 0 16 16"><path fill="#666" d="M2 3.167a.167.167 0 0 0-.167.166v9.334c0 .092.075.166.167.166h12a.167.167 0 0 0 .167-.166V3.333A.167.167 0 0 0 14 3.167H2Zm-1.167.166c0-.644.523-1.166 1.167-1.166h12c.645 0 1.167.522 1.167 1.166v9.334c0 .644-.522 1.166-1.167 1.166H2a1.167 1.167 0 0 1-1.167-1.166V3.333Zm3.537 2.37a1.833 1.833 0 0 1 2.653 2.53 2.5 2.5 0 0 1 1.143 2.1.5.5 0 0 1-1 0 1.5 1.5 0 1 0-3 0 .5.5 0 0 1-1 0 2.5 2.5 0 0 1 1.144-2.1 1.833 1.833 0 0 1 .06-2.53Zm1.297.464a.833.833 0 1 0 0 1.666.833.833 0 0 0 0-1.666Zm3.666 0a.5.5 0 1 0 0 1H12a.5.5 0 1 0 0-1H9.333ZM10 8.833a.5.5 0 1 0 0 1h2a.5.5 0 1 0 0-1h-2Z" clip-rule="evenodd" fill-rule="evenodd" data-follow-fill="#666"/></svg>