<svg viewBox="0 0 16 16" fill="currentColor" xmlns="http://www.w3.org/2000/svg"><g class="language"><path class="Union" d="M5.185 1.524a.5.5 0 0 1 .628.324l.321 1.006a.498.498 0 0 1 0 .304h3.197a.5.5 0 0 1 0 1h-.924l-.014.049A16.26 16.26 0 0 1 8.03 5.27c-.248.65-.616 1.491-1.088 2.186a6.53 6.53 0 0 1-.857 1c.592.41 1.311.794 1.953 1.1a23.251 23.251 0 0 0 1.451.634l.021.008.005.002h.002a.5.5 0 0 1 .219.163l1.143-2.566a.5.5 0 0 1 .806-.154.49.49 0 0 1 .116.162l2.655 5.99a.5.5 0 1 1-.914.406l-.624-1.407-3.168-.007-.628 1.412a.5.5 0 0 1-.914-.407l1.17-2.626a.498.498 0 0 1-.217-.031l-.003-.001-.006-.003-.025-.01a12.447 12.447 0 0 1-.422-.17c-.28-.117-.667-.286-1.099-.492-.717-.343-1.587-.806-2.292-1.326-.418.337-.849.64-1.243.9a21.33 21.33 0 0 1-1.8 1.06l-.03.015-.008.004-.002.001H2.23l-.225-.446.225.447a.5.5 0 0 1-.449-.894h.002l.006-.004.025-.013a12.59 12.59 0 0 0 .477-.257 20.36 20.36 0 0 0 1.23-.747c.339-.224.69-.47 1.026-.734-.562-.588-.96-1.26-1.226-1.807a8.527 8.527 0 0 1-.463-1.17l-.006-.021-.001-.006v-.002l-.001-.001.482-.133.482-.132v.002l.004.012.017.055a7.528 7.528 0 0 0 .386.96c.246.507.604 1.098 1.088 1.593a5.74 5.74 0 0 0 .806-.92c.407-.6.743-1.358.98-1.98.115-.302.205-.566.266-.757H1.987a.5.5 0 1 1 0-1h3.195L4.86 2.152a.5.5 0 0 1 .324-.628Zm-1.37 3.669-.483.132-.482.133a.5.5 0 0 1 .964-.265Zm6.38 6.595 2.28.005-1.138-2.567-1.142 2.562Z"/></g></svg>