<svg xmlns="http://www.w3.org/2000/svg" fill="none" viewBox="0 0 16 16"><path fill="#666" d="M3.167 5.56C3.167 2.939 5.341.834 8 .834c2.658 0 4.833 2.105 4.833 4.728 0 1.842-1.206 3.492-2.308 4.628a15.142 15.142 0 0 1-2.196 1.859l-.04.027-.01.007-.004.002h-.001L8 11.668l-.274.418-.001-.001-.004-.002-.01-.007-.04-.027a13.917 13.917 0 0 1-.655-.48 15.14 15.14 0 0 1-1.542-1.379C4.373 9.053 3.166 7.403 3.166 5.561Zm4.559 6.525L8 11.667l.274.418a.502.502 0 0 1-.548 0ZM8 11.057a14.134 14.134 0 0 0 1.808-1.564c1.065-1.098 2.025-2.501 2.025-3.932 0-2.047-1.704-3.728-3.833-3.728-2.13 0-3.833 1.68-3.833 3.728 0 1.43.96 2.834 2.025 3.932A14.134 14.134 0 0 0 8 11.057Zm4.235-.282a.5.5 0 0 1 .623-.335c.629.189 1.175.424 1.574.707.387.274.735.668.735 1.186 0 .519-.348.912-.735 1.187-.4.283-.945.518-1.574.707-1.265.379-2.982.606-4.858.606-1.875 0-3.593-.227-4.858-.607-.629-.188-1.174-.423-1.574-.706-.386-.274-.735-.668-.735-1.187 0-.518.349-.912.735-1.186.4-.283.945-.518 1.574-.707a.5.5 0 0 1 .288.958c-.578.173-1.008.37-1.283.565-.289.204-.313.337-.313.37 0 .034.024.167.313.371.275.195.706.391 1.283.565 1.148.344 2.764.564 4.57.564 1.807 0 3.422-.22 4.57-.564.578-.174 1.008-.37 1.284-.565.288-.204.313-.337.313-.37 0-.034-.025-.167-.313-.371-.276-.196-.706-.392-1.284-.565a.5.5 0 0 1-.335-.623ZM8 3.5a2.167 2.167 0 1 0 0 4.333A2.167 2.167 0 0 0 8 3.5Zm-.825 1.342a1.167 1.167 0 1 1 1.65 1.65 1.167 1.167 0 0 1-1.65-1.65Z" data-follow-fill="#666"/></svg>