<svg viewBox="0 0 16 16" fill="currentColor" xmlns="http://www.w3.org/2000/svg"><g class="numbers"><path class="Union" d="M2.08 4.728a.1.1 0 0 1 .16.08v6.81a.1.1 0 0 1-.1.1H.977a.3.3 0 0 0-.3.3v.51a.3.3 0 0 0 .3.3h3.469a.3.3 0 0 0 .3-.3v-.51a.3.3 0 0 0-.3-.3H3.283a.1.1 0 0 1-.1-.1V3.473a.3.3 0 0 0-.3-.3h-.438a.3.3 0 0 0-.188.067L.754 4.453a.3.3 0 0 0-.11.264l.07.661a.2.2 0 0 0 .32.139l1.046-.789Zm7.93 7.8a.3.3 0 0 1-.3.3H5.546a.3.3 0 0 1-.3-.3v-.676c0-.083.034-.161.094-.219a15.123 15.123 0 0 0 1.39-1.549c.255-.32.498-.655.73-1.001.234-.352.441-.703.62-1.054a6.7 6.7 0 0 0 .426-1.034c.11-.342.164-.663.164-.962 0-.303-.041-.561-.124-.774a1.448 1.448 0 0 0-.317-.526 1.164 1.164 0 0 0-.452-.3 1.528 1.528 0 0 0-.521-.09c-.152 0-.31.03-.472.09-.162.057-.32.14-.476.248a3.178 3.178 0 0 0-.515.464c-.12.136-.362.087-.398-.09l-.102-.508a.277.277 0 0 1 .033-.201 2.05 2.05 0 0 1 .332-.407 2.71 2.71 0 0 1 .526-.403c.195-.117.399-.206.61-.266a2.19 2.19 0 0 1 .636-.098c.297 0 .58.065.848.195.271.126.51.308.715.546.205.234.367.52.486.859.122.333.184.71.184 1.131 0 .364-.052.735-.154 1.112-.1.373-.233.743-.402 1.112a10 10 0 0 1-.576 1.066 15.48 15.48 0 0 1-.665.989 19.016 19.016 0 0 1-1.132 1.406.1.1 0 0 0 .075.167h1.737l.6-.013c.186-.009.49 0 .49 0h.074a.3.3 0 0 1 .3.3v.486Zm2.336-5.423c.248 0 .483-.045.704-.135a2.02 2.02 0 0 0 .581-.351c.169-.145.303-.311.402-.5.1-.187.149-.38.149-.581a1.198 1.198 0 0 0-.422-.946 1.17 1.17 0 0 0-.417-.224 1.411 1.411 0 0 0-.451-.077c-.192 0-.37.017-.536.051-.166.034-.323.09-.472.166a2.09 2.09 0 0 0-.55.418c-.123.126-.35.068-.377-.106l-.081-.507a.277.277 0 0 1 .052-.214 2.15 2.15 0 0 1 .291-.307c.143-.128.298-.236.467-.326a2.438 2.438 0 0 1 1.156-.294c.308 0 .599.051.873.153.278.103.521.25.73.442.208.187.374.417.496.69.122.273.184.58.184.921 0 .294-.05.565-.15.812a2.462 2.462 0 0 1-.892 1.113c-.12.076-.238.137-.352.184-.049.02-.047.104.003.12.058.02.118.041.18.067.139.055.276.13.412.224.135.09.266.2.392.332s.236.288.332.467c.1.179.177.384.233.614.06.226.09.482.09.767 0 .375-.075.731-.223 1.068a2.882 2.882 0 0 1-.591.876 2.841 2.841 0 0 1-.864.588 2.51 2.51 0 0 1-1.027.218 2.58 2.58 0 0 1-1.215-.288 3.11 3.11 0 0 1-.863-.674.285.285 0 0 1-.07-.216l.064-.702c.017-.187.266-.256.39-.116l.096.103c.156.162.321.3.497.416.178.115.367.204.565.268.199.06.41.09.636.09a1.646 1.646 0 0 0 1.101-.435 1.73 1.73 0 0 0 .387-.55c.1-.222.15-.48.15-.774 0-.26-.054-.496-.16-.71a1.6 1.6 0 0 0-.431-.556 1.978 1.978 0 0 0-.655-.364 2.519 2.519 0 0 0-.814-.128h-.048a.3.3 0 0 1-.3-.3v-.487a.3.3 0 0 1 .3-.3h.048Z"/></g></svg>