<svg viewBox="0 0 52 24" fill="currentColor" xmlns="http://www.w3.org/2000/svg"><g class="numberButtonP2"><path class="secondary" d="M44 7a1 1 0 0 1 1 1v8a1 1 0 0 1-1 1H8a1 1 0 0 1-1-1V8a1 1 0 0 1 1-1h36ZM8 6a2 2 0 0 0-2 2v8a2 2 0 0 0 2 2h36a2 2 0 0 0 2-2V8a2 2 0 0 0-2-2H8Z"/><path class="primary" d="M15 7v10H8a1 1 0 0 1-1-1V8a1 1 0 0 1 1-1h7ZM8 6a2 2 0 0 0-2 2v8a2 2 0 0 0 2 2h8V6H8Zm3 9.25a.5.5 0 0 1-.5-.5V12.5H8.25a.5.5 0 0 1 0-1h2.25V9.25a.5.5 0 0 1 1 0v2.25h2.25a.5.5 0 0 1 0 1H11.5v2.25a.5.5 0 0 1-.5.5Zm27.25-3.75a.5.5 0 0 0 0 1h5.5a.5.5 0 0 0 0-1h-5.5ZM37 7v10h7a1 1 0 0 0 1-1V8a1 1 0 0 0-1-1h-7Zm-1-1h8a2 2 0 0 1 2 2v8a2 2 0 0 1-2 2h-8V6Z"/></g></svg>