<svg viewBox="0 0 52 24" fill="currentColor" xmlns="http://www.w3.org/2000/svg"><g class="numberButtonP1"><path class="secondary" d="M42 7a1 1 0 0 1 1 1v8a1 1 0 0 1-1 1H10a1 1 0 0 1-1-1V8a1 1 0 0 1 1-1h32ZM10 6a2 2 0 0 0-2 2v8a2 2 0 0 0 2 2h32a2 2 0 0 0 2-2V8a2 2 0 0 0-2-2H10Z"/><path class="primary" d="M42 7a1 1 0 0 1 1 1v3.5H33V7h9Zm1 5.5V16a1 1 0 0 1-1 1h-9v-4.5h10ZM32 6v12h10a2 2 0 0 0 2-2V8a2 2 0 0 0-2-2H32Zm3.875 4.431a.375.375 0 0 1-.265-.64l2.12-2.121a.375.375 0 0 1 .53 0l2.122 2.121a.375.375 0 0 1-.53.53l-1.857-1.856-1.856 1.857a.375.375 0 0 1-.265.11Zm.006 3.133a.375.375 0 0 0-.265.64l2.121 2.122a.375.375 0 0 0 .53 0l2.122-2.122a.375.375 0 0 0-.53-.53l-1.857 1.856-1.856-1.856a.375.375 0 0 0-.265-.11Z"/></g></svg>