<svg xmlns="http://www.w3.org/2000/svg" fill="none" viewBox="0 0 16 16"><path fill="#666" d="M8 3.5c-2.015 0-3.795 1.088-5.033 2.115A14.263 14.263 0 0 0 1.08 7.513a8.121 8.121 0 0 0-.107.135l-.03.038-.007.01-.002.003-.001.002a.501.501 0 0 0 0 .599l.003.004.008.01.029.038.107.135a14.258 14.258 0 0 0 1.886 1.898C4.207 11.412 5.986 12.5 8 12.5c2.015 0 3.794-1.088 5.033-2.115a14.25 14.25 0 0 0 1.886-1.898l.108-.135.029-.038.008-.01.002-.003.001-.002a.501.501 0 0 0 0-.599h-.001l-.002-.004-.008-.01-.03-.038a12.4 12.4 0 0 0-.513-.608c-.348-.388-.854-.906-1.48-1.425C11.794 4.588 10.015 3.5 8 3.5ZM14.666 8l.401.3-.4-.3Zm.4-.3s.001.001-.4.3l.4-.3ZM1.334 8l-.4-.3.4.3Zm-.4.3.4-.3-.4.3Zm1.296-.01c-.099-.109-.183-.207-.254-.29a13.263 13.263 0 0 1 1.63-1.615C4.779 5.412 6.333 4.5 8 4.5c1.667 0 3.22.912 4.395 1.885A13.264 13.264 0 0 1 14.025 8a13.264 13.264 0 0 1-1.63 1.615C11.22 10.588 9.667 11.5 8 11.5c-1.667 0-3.221-.912-4.395-1.885-.58-.48-1.05-.963-1.376-1.324ZM8 5.834a2.167 2.167 0 1 0 0 4.334 2.167 2.167 0 0 0 0-4.334Zm-.825 1.342a1.167 1.167 0 1 1 1.65 1.65 1.167 1.167 0 0 1-1.65-1.65Z" data-follow-fill="#666"/></svg>