<svg viewBox="0 0 16 16" fill="currentColor" xmlns="http://www.w3.org/2000/svg"><g class="Rank"><path class="Vector" d="m2.914 8.5.647.646a.5.5 0 0 1-.707.708l-1.5-1.5a.5.5 0 0 1 0-.708l1.5-1.5a.5.5 0 1 1 .707.708l-.647.646h4.544V2.913l-.648.648a.5.5 0 1 1-.707-.706l1.5-1.502a.5.5 0 0 1 .708 0l1.5 1.501a.5.5 0 0 1-.707.706l-.646-.645V7.5H13l-.646-.646a.5.5 0 1 1 .707-.708l1.5 1.5a.5.5 0 0 1 0 .708l-1.5 1.5a.5.5 0 1 1-.707-.708L13 8.5H8.458v4.585l.646-.645a.5.5 0 1 1 .707.707l-1.5 1.5a.5.5 0 0 1-.708 0l-1.5-1.5a.5.5 0 1 1 .708-.707l.647.647V8.5H2.914Z"/></g></svg>