<svg xmlns="http://www.w3.org/2000/svg" fill="none" viewBox="0 0 16 16"><path fill="#666" d="M7.999 1.167a.5.5 0 0 1 .449.277l1.947 3.925 4.344.633a.5.5 0 0 1 .278.852l-3.16 3.094.75 4.3a.5.5 0 0 1-.727.527L8 12.707l-3.88 2.068a.5.5 0 0 1-.728-.528l.756-4.3L.984 6.855a.5.5 0 0 1 .278-.852l4.367-.633 1.922-3.922a.5.5 0 0 1 .448-.28Zm.004 1.63L6.41 6.046a.5.5 0 0 1-.377.275l-3.627.526 2.629 2.57a.5.5 0 0 1 .143.444l-.624 3.549 3.21-1.711a.5.5 0 0 1 .47 0l3.212 1.712-.62-3.55a.5.5 0 0 1 .143-.443l2.626-2.572-3.604-.525a.5.5 0 0 1-.376-.273l-1.613-3.25Z" clip-rule="evenodd" fill-rule="evenodd" data-follow-fill="#666"/></svg>