<svg xmlns="http://www.w3.org/2000/svg" fill="none" viewBox="0 0 16 16"><path fill="#666" d="M9.106 1.87a.5.5 0 0 1 .546.114L15.025 7.5a.5.5 0 0 1 .01.688l-5.373 5.819a.5.5 0 0 1-.868-.34v-3.13c-.953-.105-1.956-.048-3.011.176-1.089.23-2.444 1.24-4.063 3.217a.5.5 0 0 1-.884-.367c.238-2.345 1.138-4.325 2.705-5.913 1.458-1.478 3.217-2.284 5.253-2.41V2.333a.5.5 0 0 1 .312-.463Zm.688 1.693v2.16a.5.5 0 0 1-.496.5c-1.984.015-3.657.721-5.045 2.128a8.267 8.267 0 0 0-2.096 3.587c1.196-1.213 2.334-1.975 3.418-2.205 1.32-.28 2.587-.324 3.8-.126a.5.5 0 0 1 .42.494v2.287l4.183-4.53-4.184-4.295Z" data-follow-fill="#666"/></svg>