<svg viewBox="0 0 16 16" fill="currentColor" xmlns="http://www.w3.org/2000/svg"><g class="save"><path class="Union" d="M3 2.5h1.167v1.833a1.5 1.5 0 0 0 1.5 1.5h4a.5.5 0 1 0 0-1h-4a.5.5 0 0 1-.5-.5V2.5h4.945a.5.5 0 0 1 .354.147l2.888 2.887a.499.499 0 0 1 .146.354V13a.5.5 0 0 1-.5.5h-1.167V9.667a1.5 1.5 0 0 0-1.5-1.5H5.666a1.5 1.5 0 0 0-1.5 1.5V13.5H3a.5.5 0 0 1-.5-.5V3a.5.5 0 0 1 .5-.5Zm1.667-1H3A1.5 1.5 0 0 0 1.5 3v10A1.5 1.5 0 0 0 3 14.5h10a1.5 1.5 0 0 0 1.5-1.5V5.888a1.5 1.5 0 0 0-.44-1.06l-2.887-2.889a1.5 1.5 0 0 0-1.061-.439H4.666Zm1 7.667h4.666a.5.5 0 0 1 .5.5V13.5H5.166V9.667a.5.5 0 0 1 .5-.5Z"/></g></svg>