<svg xmlns="http://www.w3.org/2000/svg" fill="none" viewBox="0 0 16 16"><path fill="#666" d="M3 2.5a.5.5 0 0 0-.5.5v10a.5.5 0 0 0 .5.5h1.167V9.667a1.5 1.5 0 0 1 1.5-1.5h4.666a1.5 1.5 0 0 1 1.5 1.5V13.5H13a.5.5 0 0 0 .5-.5V5.888a.5.5 0 0 0-.146-.354l-2.888-2.887a.5.5 0 0 0-.354-.147H5.166v1.833a.5.5 0 0 0 .5.5h4a.5.5 0 1 1 0 1h-4a1.5 1.5 0 0 1-1.5-1.5V2.5H3Zm1.667-1H3A1.5 1.5 0 0 0 1.5 3v10A1.5 1.5 0 0 0 3 14.5h10a1.5 1.5 0 0 0 1.5-1.5V5.888a1.5 1.5 0 0 0-.44-1.06l-2.887-2.889a1.5 1.5 0 0 0-1.061-.439H4.666Zm1 7.667a.5.5 0 0 0-.5.5V13.5h5.666V9.667a.5.5 0 0 0-.5-.5H5.666Z" clip-rule="evenodd" fill-rule="evenodd" data-follow-fill="#666"/></svg>