<svg viewBox="0 0 16 16" fill="currentColor" xmlns="http://www.w3.org/2000/svg"><g class="search"><path class="Union" d="m12.672 11.969 1.952 1.952c.094.105.14.222.14.352 0 .13-.049.244-.148.344a.47.47 0 0 1-.343.148.515.515 0 0 1-.352-.14l-1.953-1.953c-1.385 1.135-2.92 1.653-4.608 1.554-1.687-.099-3.15-.789-4.39-2.07-1.187-1.343-1.765-2.858-1.734-4.546.031-1.687.667-3.176 1.906-4.468C4.434 1.903 5.923 1.268 7.61 1.236c1.688-.031 3.203.547 4.546 1.734 1.281 1.24 1.971 2.703 2.07 4.39.1 1.687-.419 3.223-1.554 4.608Zm-4.937 1.265c1.563-.042 2.86-.578 3.89-1.61 1.03-1.03 1.567-2.327 1.61-3.889-.042-1.562-.579-2.859-1.61-3.89-1.031-1.03-2.328-1.566-3.89-1.608-1.562.041-2.859.578-3.89 1.609-1.03 1.03-1.567 2.327-1.609 3.89.042 1.562.578 2.858 1.61 3.889 1.03 1.03 2.327 1.567 3.89 1.609Z"/></g></svg>