<svg xmlns="http://www.w3.org/2000/svg" fill="none" viewBox="0 0 16 16"><path fill="#666" d="M11.646.98a.5.5 0 0 1 .707 0l2.667 2.666a.5.5 0 0 1 0 .707L13.354 6.02l-7.667 7.667a.5.5 0 0 1-.256.136l-3.333.667a.5.5 0 0 1-.588-.588l.666-3.334a.5.5 0 0 1 .137-.255L9.97 2.656a.515.515 0 0 1 .02-.02L11.646.98Zm-1.313 2.727L3.54 10.5l.627.626 6.793-6.793-.627-.626Zm1.687.272-.98-.98.96-.959L13.96 4l-.96.96-.98-.98v-.001Zm-.353 1.061-6.793 6.793.626.626 6.793-6.793-.626-.626Zm-7.07 7.93-1.96.392.392-1.96 1.568 1.568Z" clip-rule="evenodd" fill-rule="evenodd" data-follow-fill="#666"/></svg>