<svg xmlns="http://www.w3.org/2000/svg" fill="none" viewBox="0 0 16 16"><path fill="#666" d="M14.517 3.684a2.167 2.167 0 0 0-4.27-.524h-8.23a.5.5 0 1 0 0 1h8.22a2.167 2.167 0 0 0 4.28-.476ZM12.35 2.517a1.167 1.167 0 1 1 0 2.333 1.167 1.167 0 0 1 0-2.333ZM8 5.833c-1.019 0-1.874.704-2.105 1.652H2a.5.5 0 1 0 0 1h3.888a2.167 2.167 0 0 0 4.217.03H14a.5.5 0 1 0 0-1h-3.888A2.167 2.167 0 0 0 8 5.833Zm6.483 6.507a.5.5 0 0 1-.5.5h-8.23a2.168 2.168 0 1 1 .011-1h8.22a.5.5 0 0 1 .5.5ZM9.167 8a1.167 1.167 0 1 1-2.333 0 1.167 1.167 0 0 1 2.333 0ZM3.65 11.15a1.167 1.167 0 1 0 0 2.333 1.167 1.167 0 0 0 0-2.333Z" data-follow-fill="#666"/></svg>