<svg viewBox="0 0 16 16" fill="currentColor" xmlns="http://www.w3.org/2000/svg"><g class="sort"><path class="primary" d="M6 1.5a.49.49 0 0 1 .14-.36A.487.487 0 0 1 6.5 1a.49.49 0 0 1 .36.14.49.49 0 0 1 .14.36v12.297a.45.45 0 0 1-.086.273.555.555 0 0 1-.227.18.462.462 0 0 1-.289.031.504.504 0 0 1-.258-.14L1.5 9.501a.477.477 0 0 1-.14-.352c0-.14.046-.258.14-.351a.486.486 0 0 1 .351-.157c.13 0 .248.052.352.156L6 12.595V1.5Zm3 .703a.45.45 0 0 1 .086-.273.555.555 0 0 1 .226-.18.462.462 0 0 1 .29-.032.508.508 0 0 1 .257.141l4.64 4.64a.473.473 0 0 1 .141.352c0 .14-.046.258-.14.351a.486.486 0 0 1-.352.157.486.486 0 0 1-.351-.157L10 3.406v11.093a.487.487 0 0 1-.14.36.487.487 0 0 1-.36.14.487.487 0 0 1-.36-.14.487.487 0 0 1-.14-.36V2.204Z"/></g></svg>