<svg xmlns="http://www.w3.org/2000/svg" fill="none" viewBox="0 0 16 16"><path fill="#666" d="M2.352 2.352a2.899 2.899 0 0 1 2.05-.85h7.196a2.899 2.899 0 1 1 0 5.798H4.401a2.899 2.899 0 0 1-2.05-4.948Zm2.05.15a1.899 1.899 0 0 0 0 3.798h7.196a1.899 1.899 0 0 0 0-3.798H4.401ZM2.351 9.55a2.899 2.899 0 0 1 2.05-.85h7.196a2.899 2.899 0 1 1 0 5.799H4.401a2.899 2.899 0 0 1-2.05-4.95Zm2.05.15a1.899 1.899 0 1 0 0 3.799h7.196a1.9 1.9 0 0 0 0-3.799H4.401Zm8.096-5.297a.9.9 0 1 1-1.8 0 .9.9 0 0 1 1.8 0Zm-8.097 8.096a.9.9 0 1 0 0-1.8.9.9 0 0 0 0 1.8Z" data-follow-fill="#666"/></svg>