<svg xmlns="http://www.w3.org/2000/svg" fill="none" viewBox="0 0 16 16"><path fill="#666" d="M2.35 2.35a2.899 2.899 0 0 1 2.049-.85h7.197a2.9 2.9 0 0 1 0 5.798H4.4a2.899 2.899 0 0 1-2.05-4.949Zm2.049.15a1.899 1.899 0 1 0 0 3.798h7.197a1.9 1.9 0 0 0 0-3.798H4.4Zm-2.05 7.046a2.899 2.899 0 0 1 2.05-.849h7.197a2.9 2.9 0 0 1 0 5.798H4.4a2.9 2.9 0 0 1-2.05-4.949Zm2.05.151a1.9 1.9 0 0 0 0 3.798h7.197a1.9 1.9 0 0 0 0-3.798H4.4Zm8.096-5.298a.9.9 0 1 1-1.799 0 .9.9 0 0 1 1.8 0ZM4.4 12.496a.9.9 0 1 0 0-1.8.9.9 0 0 0 0 1.8Z" clip-rule="evenodd" fill-rule="evenodd" data-follow-fill="#666"/></svg>