<svg xmlns="http://www.w3.org/2000/svg" fill="none" viewBox="0 0 16 16"><path fill="#666" d="M2.451 2.61c0-.088.071-.159.159-.159h4.914v5.073H2.451V2.61Zm0 5.866h5.073v5.073H2.61a.159.159 0 0 1-.159-.159V8.476Zm6.025 5.073V8.476h5.073v4.914a.159.159 0 0 1-.159.159H8.476Zm5.073-6.025H8.476V2.451h4.914c.088 0 .159.071.159.159v4.914ZM14.5 8v5.39a1.11 1.11 0 0 1-1.11 1.11H2.61a1.11 1.11 0 0 1-1.11-1.11V2.61c0-.613.497-1.11 1.11-1.11h10.78c.613 0 1.11.497 1.11 1.11V8Z" clip-rule="evenodd" fill-rule="evenodd" data-follow-fill="#666"/></svg>