<svg viewBox="0 0 16 16" fill="currentColor" xmlns="http://www.w3.org/2000/svg"><g class="tableStokeP3"><path class="secondary" d="M8.5 3V2h-1v1h1Zm0 1.833v-1h-1v1h1Zm0 1.834v-1h-1v1h1Zm0 3.666v-1h-1v1h1Zm0 1.834v-1h-1v1h1ZM8.5 14v-1h-1v1h1ZM3 7.5H2v1h1v-1Zm1.833 0h-1v1h1v-1Zm1.834 0h-1v1h1v-1Zm1.833 0h-1v1h1v-1Zm1.833 0h-1v1h1v-1Zm1.834 0h-1v1h1v-1ZM14 7.5h-1v1h1v-1Z"/><path class="primary" d="M2 3v10a.997.997 0 0 0 1 1h10a.998.998 0 0 0 1-1V3a.998.998 0 0 0-1-1H3a.998.998 0 0 0-1 1Zm1 .5a.498.498 0 0 1 .5-.5h9a.498.498 0 0 1 .5.5v9a.499.499 0 0 1-.5.5h-9a.5.5 0 0 1-.5-.5v-9Z"/></g></svg>