<svg xmlns="http://www.w3.org/2000/svg" fill="none" viewBox="0 0 16 16"><path fill="#DDD" d="M3 2v1H2V2h1Zm.833 0h1v1h-1V2Zm1.834 0h1v1h-1V2Zm4.666 0h-1v1h1V2Zm1.834 0h-1v1h1V2ZM13 2h1v1h-1V2ZM3 3.833v1H2v-1h1Zm11 0v1h-1v-1h1ZM3 5.667v1H2v-1h1Zm11 0v1h-1v-1h1ZM3 9.333v1H2v-1h1Zm11 0v1h-1v-1h1ZM3 11.167v1H2v-1h1Zm11 0v1h-1v-1h1ZM3 13v1H2v-1h1Zm.833 0h1v1h-1v-1Zm1.834 0h1v1h-1v-1Zm4.666 0h-1v1h1v-1Zm.834 0h1v1h-1v-1ZM14 13v1h-1v-1h1ZM8.5 2v1h-1V2h1Zm0 1.833v1h-1v-1h1Zm0 1.834v1h-1v-1h1Zm0 3.666v1h-1v-1h1Zm0 1.834v1h-1v-1h1ZM8.5 13v1h-1v-1h1ZM3 7.5H2v1h1v-1Zm1.833 0h-1v1h1v-1Zm1.834 0h-1v1h1v-1Zm1.833 0h-1v1h1v-1Zm1.833 0h-1v1h1v-1Zm1.834 0h-1v1h1v-1ZM14 7.5h-1v1h1v-1Z"/><path fill="#666" d="M14 2.5a.5.5 0 0 0-1 0v11a.5.5 0 0 0 1 0v-11Z"/></svg>