<svg viewBox="0 0 16 16" fill="currentColor" xmlns="http://www.w3.org/2000/svg"><g class="table"><path class="Union" d="M2.451 2.61v4.914h5.073V2.451H2.61a.159.159 0 0 0-.159.159Zm0 5.866v4.914c0 .088.071.159.159.159h4.914V8.476H2.451Zm6.025 5.073h4.914a.159.159 0 0 0 .159-.159V8.476H8.476v5.073Zm5.073-6.025V2.61a.159.159 0 0 0-.159-.159H8.476v5.073h5.073ZM14.5 8v5.39a1.11 1.11 0 0 1-1.11 1.11H2.61a1.11 1.11 0 0 1-1.11-1.11V2.61c0-.613.497-1.11 1.11-1.11h10.78c.613 0 1.11.497 1.11 1.11V8Z"/></g></svg>