<svg viewBox="0 0 16 16" fill="currentColor" xmlns="http://www.w3.org/2000/svg"><g class="tableOperation"><path class="primary" d="M6.538 2.223h-4.25v4.25h4.25v-4.25Zm1 0v4.25h4.25v-4.25h-4.25Zm-1 5.25h-4.25v4.25h4.25v-4.25Zm5.75 0h-4.75v4.75a.5.5 0 0 1-.5.5h-4.75a1 1 0 0 1-1-1v-9.5a1 1 0 0 1 1-1h9.5a1 1 0 0 1 1 1v4.75a.5.5 0 0 1-.5.5Zm.915.676a1 1 0 0 0-1.414 0l-3.42 3.42a1 1 0 0 0-.275.52L7.81 13.59a1 1 0 0 0 1.169 1.169l1.5-.285A1 1 0 0 0 11 14.2l3.42-3.42a1 1 0 0 0 0-1.414L13.203 8.15Zm-2.91 5.343-1.5.284.284-1.5 3.42-3.42 1.215 1.217-3.419 3.419Z"/></g></svg>