<svg viewBox="0 0 77 50" fill="currentColor" xmlns="http://www.w3.org/2000/svg"><g class="tabStyleP2"><path class="secondary" d="M39 22a2 2 0 0 0-2 2v4a2 2 0 0 0 2 2h10a2 2 0 0 0 2-2v-4a2 2 0 0 0-2-2H39Zm19 0a2 2 0 0 0-2 2v4a2 2 0 0 0 2 2h11a2 2 0 0 0 2-2v-4a2 2 0 0 0-2-2H58Z"/><path class="primary" d="M6.5 23a3.5 3.5 0 0 1 3.5-3.5h18a3.5 3.5 0 0 1 3.5 3.5v7a.5.5 0 0 0 1 0v-7a4.5 4.5 0 0 0-4.5-4.5H10A4.5 4.5 0 0 0 5.5 23v7a.5.5 0 0 0 1 0v-7Zm4.5-1a2 2 0 0 0-2 2v4a2 2 0 0 0 2 2h16a2 2 0 0 0 2-2v-4a2 2 0 0 0-2-2H11Z"/></g></svg>