<svg viewBox="0 0 77 50" fill="currentColor" xmlns="http://www.w3.org/2000/svg"><g class="tabStyleP3"><path class="primary" d="M9 24a2 2 0 0 1 2-2h16a2 2 0 0 1 2 2v4a2 2 0 0 1-2 2H11a2 2 0 0 1-2-2v-4Z"/><path class="secondary" d="M6.5 23a3.5 3.5 0 0 1 3.5-3.5h57a3.5 3.5 0 0 1 3.5 3.5v7a.5.5 0 0 0 1 0v-7a4.5 4.5 0 0 0-4.5-4.5H10A4.5 4.5 0 0 0 5.5 23v7a.5.5 0 0 0 1 0v-7ZM34 24a2 2 0 0 1 2-2h10a2 2 0 0 1 2 2v4a2 2 0 0 1-2 2H36a2 2 0 0 1-2-2v-4Zm19 0a2 2 0 0 1 2-2h11a2 2 0 0 1 2 2v4a2 2 0 0 1-2 2H55a2 2 0 0 1-2-2v-4Z"/></g></svg>