<svg viewBox="0 0 16 16" fill="currentColor" xmlns="http://www.w3.org/2000/svg"><g clip-path="url(#a)" class="time"><path class="Union" d="M3.957 1.74a.5.5 0 0 0-.58-.814L1.042 2.593a.5.5 0 1 0 .581.814L3.957 1.74Zm8.667-.814a.5.5 0 0 0-.581.814l2.333 1.667a.5.5 0 0 0 .582-.814L12.623.926ZM8.42 5.118a.5.5 0 0 0-1 0v3.67a.5.5 0 0 0 .146.353l2.591 2.59a.5.5 0 1 0 .707-.706L8.42 8.58V5.118ZM8 2.056a6.611 6.611 0 1 0 0 13.222A6.611 6.611 0 0 0 8 2.056Zm-5.611 6.61a5.611 5.611 0 1 1 11.222.001 5.611 5.611 0 0 1-11.222 0Z"/></g><defs><clipPath class="a" id="a"><path d="M0 0h16v16H0z"/></clipPath></defs></svg>