<svg viewBox="0 0 16 16" fill="currentColor" xmlns="http://www.w3.org/2000/svg"><g class="undo"><path class="Vector (Stroke)" d="M6.894 1.87a.5.5 0 0 1 .312.463V5.24c2.037.126 3.795.932 5.253 2.41 1.568 1.588 2.468 3.567 2.705 5.913a.5.5 0 0 1-.884.367c-1.62-1.977-2.974-2.986-4.062-3.217-1.056-.224-2.059-.28-3.012-.175v3.13a.5.5 0 0 1-.867.339L.966 8.187a.5.5 0 0 1 .01-.688l5.372-5.515a.5.5 0 0 1 .546-.114ZM2.023 7.857l4.183 4.531v-2.287a.5.5 0 0 1 .42-.494c1.212-.198 2.48-.153 3.8.126 1.083.23 2.222.992 3.417 2.205a8.266 8.266 0 0 0-2.095-3.587c-1.39-1.407-3.061-2.113-5.046-2.129a.5.5 0 0 1-.496-.5V3.563L2.023 7.857Z"/></g></svg>