<svg xmlns="http://www.w3.org/2000/svg" fill="none" viewBox="0 0 16 16"><path fill="#666" d="M2.215 2.549a.167.167 0 0 1 .118-.049H6.1l1.517 1.82A.5.5 0 0 0 8 4.5h5.666a.167.167 0 0 1 .167.167v8.666a.167.167 0 0 1-.167.167H2.333a.167.167 0 0 1-.167-.167V2.667c0-.045.018-.087.05-.118ZM2.333 1.5a1.167 1.167 0 0 0-1.167 1.167v10.666A1.167 1.167 0 0 0 2.333 14.5h11.334a1.167 1.167 0 0 0 1.166-1.167V4.667A1.167 1.167 0 0 0 13.666 3.5H8.234L6.717 1.68a.5.5 0 0 0-.384-.18h-4Zm6.02 4.813a.5.5 0 0 0-.707 0l-2 2a.5.5 0 1 0 .708.707L7.5 7.874v3.46a.5.5 0 0 0 1 0V7.871l1.147 1.144a.5.5 0 1 0 .706-.708l-2-1.995Z" clip-rule="evenodd" fill-rule="evenodd" data-follow-fill="#666"/></svg>