<svg viewBox="0 0 27 24" fill="currentColor" xmlns="http://www.w3.org/2000/svg"><g class="widthRatioP5"><path class="primary" d="M6.989 8.264c-.84 0-1.536.228-2.076.708-.502.418-.804.982-.92 1.693a.283.283 0 0 0 .286.323h.78a.326.326 0 0 0 .312-.27c.075-.382.23-.676.466-.882.276-.252.66-.372 1.164-.372.492 0 .864.108 1.116.324.228.216.348.528.348.948 0 .42-.132.744-.384.96-.264.216-.648.324-1.152.324h-.3a.3.3 0 0 0-.3.3v.456a.3.3 0 0 0 .3.3h.3c.552 0 .972.108 1.26.348.288.228.444.588.444 1.08 0 .408-.144.744-.42 1.02-.312.3-.744.456-1.284.456-.492 0-.888-.144-1.188-.42-.276-.246-.439-.581-.501-.998a.327.327 0 0 0-.315-.286h-.817a.285.285 0 0 0-.288.322c.117.805.441 1.44.973 1.886.54.456 1.26.684 2.148.684.936 0 1.692-.264 2.268-.78.552-.504.828-1.152.828-1.944 0-.504-.144-.924-.432-1.248-.238-.28-.582-.493-1.016-.647-.046-.016-.046-.084 0-.102.85-.326 1.28-.933 1.28-1.819 0-.744-.264-1.32-.78-1.74-.528-.42-1.236-.624-2.1-.624Zm8.218-1.104a.3.3 0 0 0-.28.194l-3.95 10.44a.3.3 0 0 0 .281.406h.547a.3.3 0 0 0 .28-.194l3.938-10.44a.3.3 0 0 0-.28-.406h-.536Zm5.856 1.272a.3.3 0 0 0-.237.116l-4.035 5.203a.3.3 0 0 0-.063.184v.929a.3.3 0 0 0 .3.3h3.54a.3.3 0 0 1 .3.3V16.7a.3.3 0 0 0 .3.3h.732a.3.3 0 0 0 .3-.3v-1.236a.3.3 0 0 1 .3-.3h.672a.3.3 0 0 0 .3-.3v-.516a.3.3 0 0 0-.3-.3H22.5a.3.3 0 0 1-.3-.3V8.732a.3.3 0 0 0-.3-.3h-.837Zm-.238 1.785a.024.024 0 0 1 .043.015v3.516a.3.3 0 0 1-.3.3h-2.497a.1.1 0 0 1-.079-.161l2.833-3.67Z"/></g></svg>