<svg viewBox="0 0 27 24" fill="currentColor" xmlns="http://www.w3.org/2000/svg"><g class="widthRatioP2"><path class="primary" d="M7.353 8.432a.313.313 0 0 0-.218.09 5.559 5.559 0 0 1-.99.75 5.43 5.43 0 0 1-.998.44.316.316 0 0 0-.226.298v.76c0 .2.192.343.38.276a4.752 4.752 0 0 0 1.405-.775c.067-.055.171-.008.171.079v6.35a.3.3 0 0 0 .3.3h.804a.3.3 0 0 0 .3-.3V8.732a.3.3 0 0 0-.3-.3h-.628ZM14.07 7.16a.3.3 0 0 0-.28.194l-3.95 10.44a.3.3 0 0 0 .281.406h.547a.3.3 0 0 0 .28-.194l3.938-10.44a.3.3 0 0 0-.28-.406h-.536Zm4.977 1.104c-.84 0-1.536.228-2.076.708-.502.418-.803.982-.92 1.693a.283.283 0 0 0 .286.323h.78a.326.326 0 0 0 .313-.27c.075-.382.23-.676.465-.882.276-.252.66-.372 1.164-.372.492 0 .864.108 1.116.324.228.216.348.528.348.948 0 .42-.132.744-.384.96-.264.216-.648.324-1.152.324h-.3a.3.3 0 0 0-.3.3v.456a.3.3 0 0 0 .3.3h.3c.552 0 .972.108 1.26.348.288.228.444.588.444 1.08 0 .408-.144.744-.42 1.02-.312.3-.744.456-1.284.456-.492 0-.888-.144-1.188-.42-.275-.246-.438-.581-.5-.998a.327.327 0 0 0-.315-.286h-.817a.285.285 0 0 0-.289.322c.118.805.442 1.44.973 1.886.54.456 1.26.684 2.148.684.936 0 1.692-.264 2.268-.78.552-.504.828-1.152.828-1.944 0-.504-.144-.924-.432-1.248-.237-.28-.582-.493-1.015-.647-.046-.016-.046-.084-.001-.102.85-.326 1.28-.933 1.28-1.819 0-.744-.264-1.32-.78-1.74-.528-.42-1.236-.624-2.1-.624Z"/></g></svg>