<svg viewBox="0 0 27 24" fill="currentColor" xmlns="http://www.w3.org/2000/svg"><g class="widthRatioP4"><path class="primary" d="M7.037 8.264c-.925 0-1.668.312-2.232.936-.493.525-.766 1.193-.827 2.013a.286.286 0 0 0 .29.303h.811a.314.314 0 0 0 .308-.289c.05-.532.189-.949.414-1.235.263-.36.66-.54 1.188-.54.492 0 .864.108 1.115.336.24.228.373.576.373 1.044 0 .48-.193.936-.565 1.356-.24.252-.623.576-1.175.96-.997.684-1.657 1.212-1.968 1.572a3.268 3.268 0 0 0-.841 1.98c-.013.166.123.3.288.3h5.376a.3.3 0 0 0 .3-.3v-.636a.3.3 0 0 0-.3-.3h-3.77c-.072 0-.12-.074-.083-.136.235-.401.74-.86 1.526-1.376.84-.564 1.44-1.02 1.776-1.38.551-.612.84-1.284.84-2.028 0-.768-.264-1.38-.793-1.86-.54-.48-1.223-.72-2.051-.72Zm8.17-1.104a.3.3 0 0 0-.28.194l-3.95 10.44a.3.3 0 0 0 .281.406h.546a.3.3 0 0 0 .281-.194l3.938-10.44a.3.3 0 0 0-.281-.406h-.535Zm4.977 1.104c-.84 0-1.536.228-2.076.708-.502.418-.804.982-.92 1.693a.283.283 0 0 0 .286.323h.78a.326.326 0 0 0 .312-.27c.076-.382.23-.676.466-.882.276-.252.66-.372 1.164-.372.492 0 .864.108 1.116.324.228.216.348.528.348.948 0 .42-.132.744-.384.96-.264.216-.648.324-1.152.324h-.3a.3.3 0 0 0-.3.3v.456a.3.3 0 0 0 .3.3h.3c.552 0 .972.108 1.26.348.288.228.444.588.444 1.08 0 .408-.144.744-.42 1.02-.312.3-.744.456-1.284.456-.492 0-.888-.144-1.188-.42-.276-.246-.438-.581-.501-.998a.326.326 0 0 0-.314-.286h-.818a.285.285 0 0 0-.288.322c.117.805.442 1.44.973 1.886.54.456 1.26.684 2.148.684.936 0 1.692-.264 2.268-.78.552-.504.828-1.152.828-1.944 0-.504-.144-.924-.432-1.248-.238-.28-.582-.493-1.015-.647-.046-.016-.047-.084-.002-.102.85-.326 1.28-.933 1.28-1.819 0-.744-.263-1.32-.78-1.74-.527-.42-1.235-.624-2.1-.624Z"/></g></svg>