<svg viewBox="0 0 27 24" fill="currentColor" xmlns="http://www.w3.org/2000/svg"><g class="widthRatioP3"><path class="primary" d="M7.353 8.432a.313.313 0 0 0-.218.09 5.559 5.559 0 0 1-.99.75 5.43 5.43 0 0 1-.998.44.316.316 0 0 0-.226.298v.76c0 .2.192.343.38.276a4.752 4.752 0 0 0 1.405-.775c.067-.055.171-.008.171.079v6.35a.3.3 0 0 0 .3.3h.804a.3.3 0 0 0 .3-.3V8.732a.3.3 0 0 0-.3-.3h-.628ZM14.07 7.16a.3.3 0 0 0-.28.194l-3.95 10.44a.3.3 0 0 0 .281.406h.547a.3.3 0 0 0 .28-.194l3.938-10.44a.3.3 0 0 0-.28-.406h-.536Zm5.025 1.104c-.924 0-1.668.312-2.232.936-.492.525-.765 1.193-.827 2.013a.286.286 0 0 0 .291.303h.81a.314.314 0 0 0 .309-.289c.05-.532.188-.949.413-1.235.264-.36.66-.54 1.188-.54.492 0 .864.108 1.116.336.24.228.372.576.372 1.044 0 .48-.192.936-.564 1.356-.24.252-.624.576-1.176.96-.996.684-1.656 1.212-1.968 1.572a3.268 3.268 0 0 0-.84 1.98c-.013.166.123.3.288.3h5.376a.3.3 0 0 0 .3-.3v-.636a.3.3 0 0 0-.3-.3h-3.77c-.072 0-.12-.074-.083-.136.234-.401.74-.86 1.525-1.376.84-.564 1.44-1.02 1.776-1.38.552-.612.84-1.284.84-2.028 0-.768-.264-1.38-.792-1.86-.54-.48-1.224-.72-2.052-.72Z"/></g></svg>