<svg viewBox="0 0 27 24" fill="currentColor" xmlns="http://www.w3.org/2000/svg"><g class="widthRatioP1"><path class="primary" d="M7.353 8.432a.313.313 0 0 0-.218.09 5.559 5.559 0 0 1-.99.75 5.43 5.43 0 0 1-.998.44.316.316 0 0 0-.226.298v.76c0 .2.192.343.38.276.462-.166.87-.379 1.226-.637.14-.103.35-.007.35.166V16.7a.3.3 0 0 0 .3.3h.804a.3.3 0 0 0 .3-.3V8.732a.3.3 0 0 0-.3-.3h-.628ZM14.07 7.16a.3.3 0 0 0-.28.194l-3.95 10.44a.3.3 0 0 0 .281.406h.547a.3.3 0 0 0 .28-.194l3.938-10.44a.3.3 0 0 0-.28-.406h-.536Zm5.856 1.272a.3.3 0 0 0-.237.116l-4.035 5.203a.3.3 0 0 0-.063.184v.929a.3.3 0 0 0 .3.3h3.54a.3.3 0 0 1 .3.3V16.7a.3.3 0 0 0 .3.3h.732a.3.3 0 0 0 .3-.3v-1.236a.3.3 0 0 1 .3-.3h.672a.3.3 0 0 0 .3-.3v-.516a.3.3 0 0 0-.3-.3h-.672a.3.3 0 0 1-.3-.3V8.732a.3.3 0 0 0-.3-.3h-.837Zm-.238 1.785a.024.024 0 0 1 .043.015v3.516a.3.3 0 0 1-.3.3h-2.293a.2.2 0 0 1-.158-.322l2.708-3.509Z"/></g></svg>